<svg width="36" height="36" viewBox="0 0 36 36" fill="none" xmlns="http://www.w3.org/2000/svg">
<g filter="url(#filter0_b_914_854)">
<circle cx="18" cy="18" r="18" fill="white" fill-opacity="0.5"/>
</g>
<path d="M25 14.7857C25 15.3774 24.5343 15.8571 23.96 15.8571C23.9535 15.8571 23.9481 15.8537 23.9417 15.8537L22.6281 23.2974C22.5559 23.7027 22.2127 24 21.8097 24H13.2137C12.8118 24 12.467 23.7038 12.3952 23.2963L11.0819 15.8545C11.0754 15.8545 11.0699 15.8571 11.04 15.8571C10.4657 15.8571 10 15.3774 10 14.7857C10 14.194 10.4891 13.7143 11.04 13.7143C11.591 13.7143 12.0801 14.194 12.0801 14.7857C12.0801 15.0267 11.9885 15.2381 11.8581 15.4171L14.1886 17.3376C14.6023 17.6786 15.2156 17.5397 15.4525 17.0515L16.9502 13.9658C16.6563 13.777 16.4483 13.4555 16.4483 13.0714C16.4483 12.4797 16.9371 12 17.5117 12C18.0863 12 18.5283 12.4797 18.5283 13.0714C18.5283 13.4555 18.3213 13.777 18.0265 13.9661L19.5242 17.0518C19.7611 17.5398 20.3747 17.6786 20.7881 17.3379L23.1186 15.4173C23.0109 15.2384 22.9199 15.0027 22.9199 14.7857C22.9199 14.1938 23.3853 13.7143 23.96 13.7143C24.5346 13.7143 25 14.1938 25 14.7857Z" fill="#007AFF"/>
<defs>
<filter id="filter0_b_914_854" x="-50" y="-50" width="136" height="136" filterUnits="userSpaceOnUse" color-interpolation-filters="sRGB">
<feFlood flood-opacity="0" result="BackgroundImageFix"/>
<feGaussianBlur in="BackgroundImageFix" stdDeviation="25"/>
<feComposite in2="SourceAlpha" operator="in" result="effect1_backgroundBlur_914_854"/>
<feBlend mode="normal" in="SourceGraphic" in2="effect1_backgroundBlur_914_854" result="shape"/>
</filter>
</defs>
</svg>
