<svg width="5" height="6" viewBox="0 0 5 6" fill="none" xmlns="http://www.w3.org/2000/svg">
<path d="M4.50444 5.18714C4.67703 5.01457 4.67703 4.73477 4.50444 4.5622L2.94209 2.99997L4.50441 1.43778C4.677 1.26521 4.677 0.985409 4.50441 0.812836C4.33183 0.640263 4.05201 0.640262 3.87942 0.812836L2.31709 2.37503L0.754465 0.812535C0.581877 0.639962 0.302057 0.639962 0.129469 0.812536C-0.0431191 0.985109 -0.0431196 1.26491 0.129468 1.43748L1.6921 2.99997L0.129441 4.5625C-0.043147 4.73507 -0.0431469 5.01487 0.129441 5.18744C0.302029 5.36001 0.581849 5.36001 0.754437 5.18744L2.31709 3.62492L3.87944 5.18714C4.05203 5.35971 4.33185 5.35971 4.50444 5.18714Z" fill="#00122D"/>
</svg>
