<svg width="16" height="15" viewBox="0 0 16 15" fill="none" xmlns="http://www.w3.org/2000/svg">
<g filter="url(#filter0_b_997_2721)">
<ellipse cx="8.28827" cy="7.44452" rx="7.40741" ry="7.40741" fill="#FF8500"/>
</g>
<path d="M11.4521 6.13581C11.4521 6.38235 11.2581 6.58224 11.0188 6.58224C11.0161 6.58224 11.0139 6.58082 11.0112 6.58079L10.4639 9.68235C10.4338 9.85121 10.2908 9.9751 10.1228 9.9751H6.5412C6.37371 9.9751 6.23006 9.85166 6.20015 9.68191L5.65294 6.58112C5.65023 6.58112 5.64796 6.58224 5.6355 6.58224C5.39618 6.58224 5.20215 6.38235 5.20215 6.13581C5.20215 5.88927 5.40593 5.68938 5.6355 5.68938C5.86507 5.68938 6.06885 5.88927 6.06885 6.13581C6.06885 6.23624 6.0307 6.32432 5.97636 6.39887L6.94739 7.19909C7.11976 7.34117 7.37533 7.28329 7.47402 7.0799L8.09805 5.79418C7.97559 5.7155 7.88892 5.58157 7.88892 5.42153C7.88892 5.17499 8.0926 4.9751 8.33202 4.9751C8.57145 4.9751 8.75562 5.17499 8.75562 5.42153C8.75562 5.58157 8.66935 5.7155 8.54653 5.79429L9.17056 7.08001C9.26926 7.28336 9.52493 7.34117 9.69719 7.1992L10.6682 6.39898C10.6234 6.32443 10.5854 6.22621 10.5854 6.13581C10.5854 5.88916 10.7794 5.68938 11.0188 5.68938C11.2582 5.68938 11.4521 5.88916 11.4521 6.13581Z" fill="#FFF5D0"/>
<defs>
<filter id="filter0_b_997_2721" x="-49.1191" y="-49.9629" width="114.814" height="114.815" filterUnits="userSpaceOnUse" color-interpolation-filters="sRGB">
<feFlood flood-opacity="0" result="BackgroundImageFix"/>
<feGaussianBlur in="BackgroundImageFix" stdDeviation="25"/>
<feComposite in2="SourceAlpha" operator="in" result="effect1_backgroundBlur_997_2721"/>
<feBlend mode="normal" in="SourceGraphic" in2="effect1_backgroundBlur_997_2721" result="shape"/>
</filter>
</defs>
</svg>
