<svg width="21" height="20" viewBox="0 0 21 20" fill="none" xmlns="http://www.w3.org/2000/svg">
<path fill-rule="evenodd" clip-rule="evenodd" d="M3.22727 0C1.72104 0 0.5 1.22104 0.5 2.72727C0.5 4.23348 1.72104 5.45455 3.22727 5.45455C4.73349 5.45455 5.95455 4.23349 5.95455 2.72727C5.95455 1.22104 4.73348 0 3.22727 0ZM2.31818 2.72727C2.31818 2.2252 2.7252 1.81818 3.22727 1.81818C3.72934 1.81818 4.13636 2.2252 4.13636 2.72727C4.13636 3.22933 3.72933 3.63636 3.22727 3.63636C2.7252 3.63636 2.31818 3.22934 2.31818 2.72727Z" fill="#007AFF"/>
<path fill-rule="evenodd" clip-rule="evenodd" d="M12.9614 8.824L16.5967 5.18867C16.9528 5.3591 17.3516 5.45455 17.7727 5.45455C19.2789 5.45455 20.5 4.23349 20.5 2.72727C20.5 1.22104 19.2789 0 17.7727 0C16.2665 0 15.0455 1.22104 15.0455 2.72727C15.0455 3.14824 15.1408 3.54694 15.3112 3.90293L11.6757 7.53844C11.3197 7.36811 10.921 7.27273 10.5 7.27273C8.99379 7.27273 7.77273 8.49379 7.77273 10C7.77273 10.421 7.86811 10.8197 8.03844 11.1757L4.40293 14.8112C4.04694 14.6408 3.64824 14.5455 3.22727 14.5455C1.72104 14.5455 0.5 15.7665 0.5 17.2727C0.5 18.7789 1.72104 20 3.22727 20C4.73349 20 5.95455 18.7789 5.95455 17.2727C5.95455 16.8516 5.8591 16.4528 5.68867 16.0967L9.324 12.4614C9.68008 12.6318 10.0789 12.7273 10.5 12.7273C12.0062 12.7273 13.2273 11.5062 13.2273 10C13.2273 9.57889 13.1318 9.18008 12.9614 8.824ZM17.1317 3.37189C17.2961 3.53535 17.5226 3.63636 17.7727 3.63636C18.2748 3.63636 18.6818 3.22933 18.6818 2.72727C18.6818 2.2252 18.2748 1.81818 17.7727 1.81818C17.2707 1.81818 16.8636 2.2252 16.8636 2.72727C16.8636 2.97732 16.9646 3.2038 17.128 3.36817L17.1298 3.36996L17.1317 3.37189ZM11.1447 9.35911C11.3081 9.52347 11.4091 9.74995 11.4091 10C11.4091 10.5021 11.0021 10.9091 10.5 10.9091C10.25 10.9091 10.0235 10.8081 9.85911 10.6447M3.86817 16.628C3.7038 16.4646 3.47732 16.3636 3.22727 16.3636C2.7252 16.3636 2.31818 16.7707 2.31818 17.2727C2.31818 17.7748 2.7252 18.1818 3.22727 18.1818C3.72933 18.1818 4.13636 17.7748 4.13636 17.2727C4.13636 17.0226 4.03535 16.7961 3.87189 16.6317L3.86996 16.6298L3.86817 16.628Z" fill="#007AFF"/>
<path fill-rule="evenodd" clip-rule="evenodd" d="M16.5967 12.4614L12.9614 16.0967C13.1318 16.4528 13.2273 16.8516 13.2273 17.2727C13.2273 18.7789 12.0062 20 10.5 20C8.99379 20 7.77273 18.7789 7.77273 17.2727C7.77273 15.7665 8.99379 14.5455 10.5 14.5455C10.921 14.5455 11.3197 14.6408 11.6757 14.8112L15.3112 11.1757C15.1408 10.8197 15.0455 10.421 15.0455 10C15.0455 8.49379 16.2665 7.27273 17.7727 7.27273C19.2789 7.27273 20.5 8.49379 20.5 10C20.5 11.5062 19.2789 12.7273 17.7727 12.7273C17.3516 12.7273 16.9528 12.6318 16.5967 12.4614ZM17.7727 10.9091C17.5226 10.9091 17.2961 10.8081 17.1317 10.6446L17.1298 10.6427L17.128 10.6409C16.9646 10.4766 16.8636 10.2501 16.8636 10C16.8636 9.49794 17.2707 9.09091 17.7727 9.09091C18.2748 9.09091 18.6818 9.49794 18.6818 10C18.6818 10.5021 18.2748 10.9091 17.7727 10.9091ZM11.4091 17.2727C11.4091 17.0226 11.3081 16.7961 11.1446 16.6317C10.9799 16.4661 10.7519 16.3636 10.5 16.3636C9.99794 16.3636 9.59091 16.7707 9.59091 17.2727C9.59091 17.7748 9.99794 18.1818 10.5 18.1818C11.0021 18.1818 11.4091 17.7748 11.4091 17.2727Z" fill="#007AFF"/>
<path fill-rule="evenodd" clip-rule="evenodd" d="M9.324 5.18867L5.68867 8.824C5.8591 9.18008 5.95455 9.57889 5.95455 10C5.95455 11.5062 4.73349 12.7273 3.22727 12.7273C1.72104 12.7273 0.5 11.5062 0.5 10C0.5 8.49379 1.72104 7.27273 3.22727 7.27273C3.64824 7.27273 4.04694 7.36811 4.40293 7.53844L8.03844 3.90293C7.86811 3.54694 7.77273 3.14824 7.77273 2.72727C7.77273 1.22104 8.99379 0 10.5 0C12.0062 0 13.2273 1.22104 13.2273 2.72727C13.2273 4.23349 12.0062 5.45455 10.5 5.45455C10.0789 5.45455 9.68008 5.3591 9.324 5.18867ZM9.85706 3.36996L9.85906 3.37196C10.0234 3.53538 10.2499 3.63636 10.5 3.63636C11.0021 3.63636 11.4091 3.22933 11.4091 2.72727C11.4091 2.2252 11.0021 1.81818 10.5 1.81818C9.99794 1.81818 9.59091 2.2252 9.59091 2.72727C9.59091 2.97729 9.69185 3.20374 9.85519 3.36809L9.85706 3.36996ZM3.22727 9.09091C3.47925 9.09091 3.7073 9.19344 3.87196 9.35906C4.03538 9.52342 4.13636 9.74992 4.13636 10C4.13636 10.5021 3.72933 10.9091 3.22727 10.9091C2.7252 10.9091 2.31818 10.5021 2.31818 10C2.31818 9.49794 2.7252 9.09091 3.22727 9.09091Z" fill="#007AFF"/>
<path fill-rule="evenodd" clip-rule="evenodd" d="M17.7727 14.5455C16.2665 14.5455 15.0455 15.7665 15.0455 17.2727C15.0455 18.7789 16.2665 20 17.7727 20C19.2789 20 20.5 18.7789 20.5 17.2727C20.5 15.7665 19.2789 14.5455 17.7727 14.5455ZM16.8636 17.2727C16.8636 16.7707 17.2707 16.3636 17.7727 16.3636C18.2748 16.3636 18.6818 16.7707 18.6818 17.2727C18.6818 17.7748 18.2748 18.1818 17.7727 18.1818C17.2707 18.1818 16.8636 17.7748 16.8636 17.2727Z" fill="#007AFF"/>
</svg>
