<svg width="16" height="16" viewBox="0 0 16 16" fill="none" xmlns="http://www.w3.org/2000/svg">
<path fill-rule="evenodd" clip-rule="evenodd" d="M12.671 0.214976C12.3844 -0.0716595 11.9197 -0.0716585 11.633 0.214978L8.5277 3.3203C8.52473 3.32317 8.52178 3.32608 8.51884 3.32902C8.5159 3.33195 8.51299 3.33491 8.51012 3.33788L0.214977 11.633C0.0773241 11.7707 -5.94878e-06 11.9574 3.43121e-10 12.1521L9.5373e-05 15.266C0.000107798 15.6713 0.328707 15.9999 0.734057 15.9999L3.84798 16C4.04265 16 4.22934 15.9227 4.367 15.785L15.785 4.36698C15.9227 4.22933 16 4.04264 16 3.84797C16 3.65331 15.9227 3.46662 15.785 3.32897L12.671 0.214976ZM9.03791 4.88609L1.46797 12.4561L1.46803 14.532L3.54398 14.532L11.1139 6.96209L9.03791 4.88609ZM12.1519 5.92409L14.228 3.84798L12.152 1.77198L10.0759 3.84809L12.1519 5.92409Z" fill="#3C3137"/>
</svg>
