<svg width="21" height="21" viewBox="0 0 21 21" fill="none" xmlns="http://www.w3.org/2000/svg">
<path d="M8.75 2.5C8.75 2.36192 8.86192 2.25 9 2.25H19C19.1381 2.25 19.25 2.36192 19.25 2.5V13.5C19.25 13.6381 19.1381 13.75 19 13.75H17C16.5858 13.75 16.25 14.0858 16.25 14.5C16.25 14.9142 16.5858 15.25 17 15.25H19C19.9665 15.25 20.75 14.4665 20.75 13.5V2.5C20.75 1.53351 19.9665 0.75 19 0.75H9C8.03348 0.75 7.25 1.53351 7.25 2.5V4C7.25 4.41421 7.58579 4.75 8 4.75C8.41421 4.75 8.75 4.41421 8.75 4V2.5Z" fill="#333333"/>
<path d="M7 10.75C7.41421 10.75 7.75 11.0858 7.75 11.5V13.25H9.5C9.91421 13.25 10.25 13.5858 10.25 14C10.25 14.4142 9.91421 14.75 9.5 14.75H7.75V16.5C7.75 16.9142 7.41421 17.25 7 17.25C6.58579 17.25 6.25 16.9142 6.25 16.5V14.75H4.5C4.08579 14.75 3.75 14.4142 3.75 14C3.75 13.5858 4.08579 13.25 4.5 13.25H6.25V11.5C6.25 11.0858 6.58579 10.75 7 10.75Z" fill="#333333"/>
<path fill-rule="evenodd" clip-rule="evenodd" d="M2 7.25C1.0335 7.25 0.25 8.0335 0.25 9V19C0.25 19.9665 1.0335 20.75 2 20.75H12C12.9665 20.75 13.75 19.9665 13.75 19V9C13.75 8.0335 12.9665 7.25 12 7.25H2ZM1.75 9C1.75 8.86193 1.86193 8.75 2 8.75H12C12.1381 8.75 12.25 8.86193 12.25 9V19C12.25 19.1381 12.1381 19.25 12 19.25H2C1.86193 19.25 1.75 19.1381 1.75 19V9Z" fill="#333333"/>
</svg>
