<svg width="15" height="20" viewBox="0 0 15 20" fill="none" xmlns="http://www.w3.org/2000/svg">
<path d="M0 2.50016C0 1.57969 0.746192 0.833496 1.66667 0.833496H13.3333C14.2538 0.833496 15 1.5797 15 2.50016V11.2502C15 11.7104 14.6269 12.0835 14.1667 12.0835C13.7064 12.0835 13.3333 11.7104 13.3333 11.2502V2.50016H1.66667V17.5002H6.25C6.71024 17.5002 7.08333 17.8733 7.08333 18.3335C7.08333 18.7937 6.71024 19.1668 6.25 19.1668H1.66667C0.7462 19.1668 0 18.4207 0 17.5002V2.50016Z" fill="#333333"/>
<path d="M3.75 5.00016C3.75 4.53993 4.1231 4.16683 4.58333 4.16683H10.4167C10.8769 4.16683 11.25 4.53993 11.25 5.00016C11.25 5.4604 10.8769 5.8335 10.4167 5.8335H4.58333C4.1231 5.8335 3.75 5.4604 3.75 5.00016Z" fill="#333333"/>
<path d="M4.58333 7.50016C4.1231 7.50016 3.75 7.87326 3.75 8.3335C3.75 8.79373 4.1231 9.16683 4.58333 9.16683H10.4167C10.8769 9.16683 11.25 8.79373 11.25 8.3335C11.25 7.87326 10.8769 7.50016 10.4167 7.50016H4.58333Z" fill="#333333"/>
<path d="M3.75 11.6668C3.75 11.2066 4.1231 10.8335 4.58333 10.8335H7.08333C7.54357 10.8335 7.91667 11.2066 7.91667 11.6668C7.91667 12.1271 7.54357 12.5002 7.08333 12.5002H4.58333C4.1231 12.5002 3.75 12.1271 3.75 11.6668Z" fill="#333333"/>
<path fill-rule="evenodd" clip-rule="evenodd" d="M10.8333 12.5002C9.22251 12.5002 7.91667 13.806 7.91667 15.4168C7.91667 17.0277 9.22251 18.3335 10.8333 18.3335C11.3353 18.3335 11.8081 18.2063 12.2208 17.9828L13.1607 18.9228C13.4862 19.2482 14.0138 19.2482 14.3393 18.9228C14.6647 18.5973 14.6647 18.0697 14.3393 17.7442L13.3993 16.8043C13.6228 16.3916 13.75 15.9188 13.75 15.4168C13.75 13.806 12.4442 12.5002 10.8333 12.5002ZM9.58333 15.4168C9.58333 14.7265 10.143 14.1668 10.8333 14.1668C11.5237 14.1668 12.0833 14.7265 12.0833 15.4168C12.0833 15.7622 11.9443 16.0736 11.7172 16.3007C11.4902 16.5278 11.1788 16.6668 10.8333 16.6668C10.143 16.6668 9.58333 16.1072 9.58333 15.4168Z" fill="#333333"/>
</svg>
