<svg width="50" height="50" viewBox="0 0 50 50" fill="none" xmlns="http://www.w3.org/2000/svg">
<g clip-path="url(#clip0_166_17)">
<path fill-rule="evenodd" clip-rule="evenodd" d="M25.0003 17.1875C20.6071 17.1875 17.0457 20.6853 17.0457 25C17.0457 29.3147 20.6071 32.8125 25.0003 32.8125C29.3936 32.8125 32.9549 29.3147 32.9549 25C32.9549 20.6853 29.3936 17.1875 25.0003 17.1875ZM21.5912 25C21.5912 23.1508 23.1176 21.6518 25.0003 21.6518C26.8832 21.6518 28.4095 23.1508 28.4095 25C28.4095 26.8491 26.8832 28.3482 25.0003 28.3482C23.1176 28.3482 21.5912 26.8491 21.5912 25Z" fill="#333333"/>
<path fill-rule="evenodd" clip-rule="evenodd" d="M25 9.375C17.9327 9.375 11.7379 13.1177 7.47869 16.585C5.31684 18.345 3.57297 20.0998 2.3687 21.4145C1.76525 22.0733 1.29382 22.6254 0.969653 23.0175C0.807484 23.2137 0.681916 23.3701 0.594856 23.4802C0.551319 23.5352 0.517391 23.5787 0.493303 23.6098L0.464578 23.647L0.4558 23.6585L0.451681 23.6639C-0.149958 24.4558 -0.150861 25.5431 0.450778 26.3349L2.27232 25C0.450778 26.3349 0.452819 26.3376 0.452819 26.3376L0.4558 26.3415L0.464578 26.353L0.493303 26.3902C0.517391 26.4213 0.551319 26.4648 0.594856 26.5198C0.681916 26.6299 0.807484 26.7863 0.969653 26.9825C1.29382 27.3746 1.76525 27.9267 2.3687 28.5855C3.57297 29.9002 5.31684 31.655 7.47869 33.415C11.7379 36.8823 17.9327 40.625 25 40.625C32.0672 40.625 38.2622 36.8823 42.5213 33.415C44.6831 31.655 46.4269 29.9002 47.6312 28.5855C48.2347 27.9267 48.7063 27.3746 49.0303 26.9825C49.1925 26.7863 49.3181 26.6299 49.405 26.5198C49.4487 26.4648 49.4825 26.4213 49.5066 26.3902L49.5353 26.353L49.5441 26.3415L49.5484 26.3361C50.15 25.5442 50.1509 24.4569 49.5494 23.6651L47.7278 25C49.5494 23.6651 49.5472 23.6624 49.5472 23.6624L49.5441 23.6585L49.5353 23.647L49.5066 23.6098C49.4825 23.5787 49.4487 23.5352 49.405 23.4802C49.3181 23.3701 49.1925 23.2137 49.0303 23.0175C48.7063 22.6254 48.2347 22.0733 47.6312 21.4145C46.4269 20.0998 44.6831 18.345 42.5213 16.585C38.2622 13.1177 32.0672 9.375 25 9.375ZM47.7278 25L49.5484 26.3361C49.5484 26.3361 49.5494 26.3349 47.7278 25ZM2.27232 25L0.451681 23.6639C0.451681 23.6639 0.450778 23.6651 2.27232 25ZM5.74803 25.5998C5.55213 25.3859 5.37228 25.1852 5.20919 25C5.37228 24.8148 5.55213 24.6141 5.74803 24.4002C6.84394 23.2038 8.42847 21.6104 10.3795 20.0221C14.3461 16.793 19.5152 13.8393 25 13.8393C30.4848 13.8393 35.6541 16.793 39.6206 20.0221C41.5716 21.6104 43.1559 23.2038 44.2519 24.4002C44.4478 24.6141 44.6278 24.8148 44.7909 25C44.6278 25.1852 44.4478 25.3859 44.2519 25.5998C43.1559 26.7962 41.5716 28.3896 39.6206 29.9779C35.6541 33.207 30.4848 36.1607 25 36.1607C19.5152 36.1607 14.3461 33.207 10.3795 29.9779C8.42847 28.3896 6.84394 26.7962 5.74803 25.5998Z" fill="#333333"/>
</g>
<defs>
<clipPath id="clip0_166_17">
<rect width="50" height="31.25" fill="white" transform="translate(0 9.375)"/>
</clipPath>
</defs>
</svg>
