<svg width="21" height="20" viewBox="0 0 21 20" fill="none" xmlns="http://www.w3.org/2000/svg">
<path fill-rule="evenodd" clip-rule="evenodd" d="M1.75 15.8335C1.75 14.4528 2.86928 13.3335 4.25 13.3335C5.6307 13.3335 6.75 14.4528 6.75 15.8335C6.75 17.2142 5.6307 18.3335 4.25 18.3335C2.86928 18.3335 1.75 17.2142 1.75 15.8335ZM4.25 15.0002C3.78977 15.0002 3.41667 15.3733 3.41667 15.8335C3.41667 16.2937 3.78977 16.6668 4.25 16.6668C4.71022 16.6668 5.08333 16.2937 5.08333 15.8335C5.08333 15.3733 4.71022 15.0002 4.25 15.0002Z" fill="#333333"/>
<path fill-rule="evenodd" clip-rule="evenodd" d="M1.75 4.1665C1.75 2.78579 2.86929 1.6665 4.25 1.6665C5.63069 1.6665 6.75 2.78579 6.75 4.1665C6.75 5.54725 5.63068 6.6665 4.25 6.6665C2.8693 6.6665 1.75 5.54725 1.75 4.1665ZM4.25 3.33317C3.78976 3.33317 3.41667 3.70627 3.41667 4.1665C3.41667 4.62676 3.78975 4.99984 4.25 4.99984C4.71023 4.99984 5.08333 4.62675 5.08333 4.1665C5.08333 3.70627 4.71023 3.33317 4.25 3.33317Z" fill="#333333"/>
<path fill-rule="evenodd" clip-rule="evenodd" d="M1.75 10C1.75 8.61925 2.8693 7.5 4.25 7.5C5.63068 7.5 6.75 8.61925 6.75 10C6.75 11.3808 5.63068 12.5 4.25 12.5C2.8693 12.5 1.75 11.3807 1.75 10ZM4.25 9.16667C3.78975 9.16667 3.41667 9.53975 3.41667 10C3.41667 10.4603 3.78975 10.8333 4.25 10.8333C4.71023 10.8333 5.08333 10.4602 5.08333 10C5.08333 9.53975 4.71023 9.16667 4.25 9.16667Z" fill="#333333"/>
<path fill-rule="evenodd" clip-rule="evenodd" d="M8.41699 9.99984C8.41699 9.5396 8.79009 9.1665 9.25033 9.1665H18.417C18.8772 9.1665 19.2503 9.5396 19.2503 9.99984C19.2503 10.4601 18.8772 10.8332 18.417 10.8332H9.25033C8.79009 10.8332 8.41699 10.4601 8.41699 9.99984Z" fill="#333333"/>
<path fill-rule="evenodd" clip-rule="evenodd" d="M8.41699 15.8333C8.41699 15.3731 8.79009 15 9.25033 15H18.417C18.8772 15 19.2503 15.3731 19.2503 15.8333C19.2503 16.2936 18.8772 16.6667 18.417 16.6667H9.25033C8.79009 16.6667 8.41699 16.2936 8.41699 15.8333Z" fill="#333333"/>
<path fill-rule="evenodd" clip-rule="evenodd" d="M8.41699 4.16683C8.41699 3.70659 8.79009 3.3335 9.25033 3.3335H18.417C18.8772 3.3335 19.2503 3.70659 19.2503 4.16683C19.2503 4.62707 18.8772 5.00016 18.417 5.00016H9.25033C8.79009 5.00016 8.41699 4.62707 8.41699 4.16683Z" fill="#333333"/>
</svg>
