<svg width="17" height="20" viewBox="0 0 17 20" fill="none" xmlns="http://www.w3.org/2000/svg">
<path fill-rule="evenodd" clip-rule="evenodd" d="M0.166992 7.50016C0.166992 7.03993 0.540088 6.66683 1.00033 6.66683C5.20076 6.66683 7.94726 7.51361 8.89075 8.01395C9.16326 8.15846 9.33366 8.4417 9.33366 8.75016V18.3335C9.33366 18.6853 9.11273 18.9992 8.78158 19.1179C8.45042 19.2367 8.08037 19.1346 7.85684 18.863C7.64186 18.6017 7.27087 18.3564 6.72506 18.1489C6.18661 17.9443 5.53865 17.7994 4.84174 17.7002C3.44598 17.5013 1.97032 17.5002 1.00033 17.5002C0.540088 17.5002 0.166992 17.1271 0.166992 16.6668V7.50016ZM1.83366 8.34541V15.8368C2.75551 15.8468 3.93277 15.8872 5.07679 16.0502C5.84238 16.1592 6.62209 16.3268 7.31712 16.591C7.43461 16.6356 7.55153 16.6837 7.66699 16.7356V9.29362C6.73875 8.94345 4.75635 8.42973 1.83366 8.34541Z" fill="#333333"/>
<path fill-rule="evenodd" clip-rule="evenodd" d="M8.1099 8.01395C9.05339 7.51361 11.7999 6.66683 16.0003 6.66683C16.4606 6.66683 16.8337 7.03993 16.8337 7.50016V16.6668C16.8337 17.1271 16.4606 17.5002 16.0003 17.5002C15.0303 17.5002 13.5547 17.5013 12.1589 17.7002C11.462 17.7994 10.814 17.9443 10.2756 18.1489C9.72978 18.3564 9.35879 18.6017 9.14382 18.863C8.92028 19.1346 8.55023 19.2367 8.21908 19.1179C7.88792 18.9992 7.66699 18.6853 7.66699 18.3335V8.75016C7.66699 8.4417 7.83739 8.15846 8.1099 8.01395ZM9.33366 9.29362V16.7356C9.44913 16.6837 9.56604 16.6356 9.68353 16.591C10.3786 16.3268 11.1583 16.1592 11.9239 16.0502C13.0679 15.8872 14.2451 15.8468 15.167 15.8368V8.34541C12.2443 8.42973 10.2619 8.94345 9.33366 9.29362Z" fill="#333333"/>
<path fill-rule="evenodd" clip-rule="evenodd" d="M8.50033 2.50016C7.11961 2.50016 6.00033 3.61945 6.00033 5.00016C6.00033 6.38087 7.11961 7.50016 8.50033 7.50016C9.88104 7.50016 11.0003 6.38087 11.0003 5.00016C11.0003 3.61945 9.88104 2.50016 8.50033 2.50016ZM4.33366 5.00016C4.33366 2.69898 6.19914 0.833496 8.50033 0.833496C10.8015 0.833496 12.667 2.69898 12.667 5.00016C12.667 7.30135 10.8015 9.16683 8.50033 9.16683C6.19914 9.16683 4.33366 7.30135 4.33366 5.00016Z" fill="#333333"/>
</svg>
