<svg width="19" height="20" viewBox="0 0 19 20" fill="none" xmlns="http://www.w3.org/2000/svg">
<path d="M4.9543 5.00016H3.90927C5.28327 3.46491 7.27913 2.50016 9.49967 2.50016C13.6418 2.50016 16.9997 5.85803 16.9997 10.0002C16.9997 14.1423 13.6418 17.5002 9.49967 17.5002C5.35754 17.5002 1.99967 14.1423 1.99967 10.0002C1.99967 9.53993 1.62658 9.16683 1.16634 9.16683C0.706104 9.16683 0.333008 9.53993 0.333008 10.0002C0.333008 15.0628 4.43706 19.1668 9.49967 19.1668C14.5623 19.1668 18.6663 15.0628 18.6663 10.0002C18.6663 4.93755 14.5623 0.833496 9.49967 0.833496C6.83233 0.833496 4.43172 1.97302 2.75732 3.78989V2.8032C2.75732 2.34297 2.38423 1.96987 1.92399 1.96987C1.46375 1.96987 1.09066 2.34297 1.09066 2.8032V5.8335C1.09066 6.29374 1.46375 6.66683 1.92399 6.66683H4.9543C5.41454 6.66683 5.78763 6.29374 5.78763 5.8335C5.78763 5.37326 5.41454 5.00016 4.9543 5.00016Z" fill="#333333"/>
<path d="M10.3351 5.00025C10.3351 4.54001 9.96207 4.16688 9.50183 4.16683C9.0416 4.16678 8.66846 4.53984 8.66842 5.00008L8.66792 10.0037C8.6679 10.2248 8.7557 10.4368 8.912 10.5931L12.4451 14.1262C12.7705 14.4516 13.2982 14.4516 13.6236 14.1262C13.949 13.8007 13.949 13.2731 13.6236 12.9477L10.3346 9.65869L10.3351 5.00025Z" fill="#333333"/>
</svg>
