<svg width="14" height="14" viewBox="0 0 14 14" fill="none" xmlns="http://www.w3.org/2000/svg">
<path d="M14 6.99958C14.0001 6.44728 13.5524 5.99958 13.0001 5.99964L8.00009 5.99991L8.00036 0.999948C8.00033 0.447738 7.55263 3.66228e-05 7.00042 0C6.4481 4.88303e-05 6.00032 0.447823 6.00037 1.00005L6.00009 5.99999L1.00005 6.00017C0.447835 6.00014 6.10379e-05 6.44791 0 7.00022C4.88303e-05 7.55244 0.447738 8.00013 0.99996 8.00018L6 8L5.99982 13C5.99977 13.5524 6.44746 14 6.99978 14C7.55209 13.9999 7.99976 13.5523 7.99983 13L8.00001 7.99991L13 7.99963C13.5523 7.99958 14 7.5519 14 6.99958Z" fill="#007AFF"/>
</svg>
