<svg width="12" height="12" viewBox="0 0 12 12" fill="none" xmlns="http://www.w3.org/2000/svg">
<path d="M5.39391 11.7489C5.72864 12.0837 6.27136 12.0837 6.60609 11.7489C6.94083 11.4142 6.94083 10.8715 6.60609 10.5368L2.92291 6.85359L11.1429 6.85359C11.6162 6.85359 12 6.46983 12 5.99644C12 5.52306 11.6162 5.1393 11.1429 5.1393L2.93003 5.1393L6.60609 1.46323C6.94083 1.1285 6.94083 0.585787 6.60609 0.251052C6.27136 -0.0836839 5.72864 -0.0836839 5.39391 0.251052L0.299377 5.34558C0.116109 5.50278 3.09627e-07 5.73605 2.86863e-07 5.99644L1.92158e-06 5.99818C-0.000462401 6.21815 0.0832209 6.43826 0.251052 6.60609L5.39391 11.7489Z" fill="white"/>
</svg>
