<svg width="14" height="14" viewBox="0 0 14 14" fill="none" xmlns="http://www.w3.org/2000/svg">
<path d="M7.38075 0.919211C7.59103 0.708929 7.59103 0.367994 7.38075 0.157712C7.17047 -0.0525706 6.82953 -0.0525706 6.61925 0.157712L0.201264 6.5757C0.0785413 6.67439 0 6.82579 0 6.99553L4.57651e-06 6.99777C-0.000564541 7.13632 0.0520045 7.27504 0.157712 7.38075L6.61925 13.8423C6.82953 14.0526 7.17047 14.0526 7.38075 13.8423C7.59103 13.632 7.59103 13.2911 7.38075 13.0808L1.83395 7.53399H13.4615C13.7589 7.53399 14 7.29291 14 6.99553C14 6.69815 13.7589 6.45707 13.4615 6.45707H1.84289L7.38075 0.919211Z" fill="#B2AFAF"/>
</svg>
