<svg width="101" height="111" viewBox="0 0 101 111" fill="none" xmlns="http://www.w3.org/2000/svg">
<path fill-rule="evenodd" clip-rule="evenodd" d="M0.491211 40.4517C0.491211 37.6903 2.72979 35.4517 5.49125 35.4517C30.6939 35.4517 47.1729 40.5324 52.8339 43.5344C54.4689 44.4015 55.4913 46.1009 55.4913 47.9517V105.452C55.4913 107.563 54.1658 109.446 52.1788 110.158C50.1919 110.871 47.9716 110.258 46.6304 108.629C45.3405 107.061 43.1146 105.589 39.8397 104.344C36.609 103.117 32.7212 102.247 28.5398 101.652C20.1652 100.459 11.3112 100.452 5.49125 100.452C2.72979 100.452 0.491211 98.2134 0.491211 95.4516V40.4517ZM10.4912 45.5232V90.4716C16.0224 90.5316 23.0859 90.774 29.9501 91.752C34.5436 92.406 39.2219 93.4116 43.3921 94.9968C44.097 95.2644 44.7985 95.553 45.4913 95.8644V51.2124C39.9218 49.1114 28.0274 46.0291 10.4912 45.5232Z" fill="#333333"/>
<path fill-rule="evenodd" clip-rule="evenodd" d="M48.1482 43.5344C53.8091 40.5324 70.2882 35.4517 95.4907 35.4517C98.2525 35.4517 100.491 37.6903 100.491 40.4517V95.4516C100.491 98.2134 98.2525 100.452 95.4907 100.452C89.6707 100.452 80.8171 100.459 72.4422 101.652C68.2608 102.247 64.3728 103.117 61.1424 104.344C57.8675 105.589 55.6415 107.061 54.3517 108.629C53.0105 110.258 50.7902 110.871 48.8033 110.158C46.8163 109.446 45.4907 107.563 45.4907 105.452V47.9517C45.4907 46.1009 46.5131 44.4015 48.1482 43.5344ZM55.4908 51.2124V95.8644C56.1836 95.553 56.885 95.2644 57.59 94.9968C61.7604 93.4116 66.4386 92.406 71.0322 91.752C77.8962 90.774 84.9595 90.5316 90.4909 90.4716V45.5232C72.9546 46.0291 61.0602 49.1114 55.4908 51.2124Z" fill="#333333"/>
<path fill-rule="evenodd" clip-rule="evenodd" d="M50.4913 10.4514C42.2069 10.4514 35.4913 17.1672 35.4913 25.4515C35.4913 33.7357 42.2069 40.4515 50.4913 40.4515C58.7756 40.4515 65.4911 33.7357 65.4911 25.4515C65.4911 17.1672 58.7756 10.4514 50.4913 10.4514ZM25.4912 25.4515C25.4912 11.6443 36.6841 0.451416 50.4913 0.451416C64.2983 0.451416 75.4914 11.6443 75.4914 25.4515C75.4914 39.2586 64.2983 50.4515 50.4913 50.4515C36.6841 50.4515 25.4912 39.2586 25.4912 25.4515Z" fill="#333333"/>
</svg>
