<svg width="1574" height="919" viewBox="0 0 1574 919" fill="none" xmlns="http://www.w3.org/2000/svg">
<path d="M459.9 480.1H1087.9C1102.1 480.1 1114.6 468.5 1115.6 454.3L1116.2 25.8C1117.2 11.6 1106.4 0 1092.2 0H464.2C450 0 437.5 11.6 436.5 25.8L435.9 454.3C434.9 468.5 445.7 480.1 459.9 480.1Z" fill="#407FFE"/>
<path d="M457.5 480.1H1085.5C1099.7 480.1 1112.2 468.5 1113.2 454.3L1113.8 25.8C1114.8 11.6 1104 0 1089.8 0H461.8C447.6 0 435.1 11.6 434.1 25.8L433.5 454.3C432.5 468.5 443.2 480.1 457.5 480.1Z" fill="#007CFF"/>
<path d="M457.5 480.1H1085.5C1099.7 480.1 1112.2 468.5 1113.2 454.3L1113.8 25.8C1114.8 11.6 1104 0 1089.8 0H461.8C447.6 0 435.1 11.6 434.1 25.8L433.5 454.3C432.5 468.5 443.2 480.1 457.5 480.1Z" fill="#6B98F6"/>
<path d="M460.9 12.7998H1088.9C1089.6 12.7998 1090.3 12.7998 1091 12.8998C1107.1 14.1998 1103.8 38.5998 1087.6 38.5998H458.5C442.3 38.5998 442.5 14.1998 458.8 12.8998C459.5 12.7998 460.2 12.7998 460.9 12.7998Z" fill="#407FFE"/>
<path d="M1072.5 25.6998C1072.3 28.9998 1074.7 31.5998 1078 31.5998C1081.3 31.5998 1084.1 28.8998 1084.3 25.6998C1084.5 22.3998 1082.1 19.7998 1078.8 19.7998C1075.6 19.7998 1072.8 22.4998 1072.5 25.6998Z" fill="#FAFAFA"/>
<path d="M1052.4 25.6998C1052.2 28.9998 1054.6 31.5998 1057.9 31.5998C1061.2 31.5998 1064 28.8998 1064.2 25.6998C1064.4 22.3998 1062 19.7998 1058.7 19.7998C1055.5 19.7998 1052.6 22.4998 1052.4 25.6998Z" fill="#FAFAFA"/>
<path d="M1032.3 25.6998C1032.1 28.9998 1034.5 31.5998 1037.8 31.5998C1041.1 31.5998 1043.9 28.8998 1044.1 25.6998C1044.3 22.3998 1041.9 19.7998 1038.6 19.7998C1035.3 19.7998 1032.5 22.4998 1032.3 25.6998Z" fill="#FAFAFA"/>
<path d="M474.1 437.3H1075C1080.2 437.3 1084.7 433.1 1085 427.9V75.5001C1085.4 70.3001 1081.5 66.1001 1076.3 66.1001H475.4C470.2 66.1001 465.7 70.3001 465.4 75.5001V427.9C465 433.1 468.9 437.3 474.1 437.3Z" fill="white"/>
<path d="M826.5 181C825.9 189.2 832.1 195.8 840.2 195.8C848.4 195.8 855.4 189.2 856 181C856.6 172.8 850.4 166.2 842.3 166.2C834.2 166.2 827.1 172.8 826.5 181Z" fill="#407FFE"/>
<path d="M730.6 181C730 189.2 736.1 195.8 744.3 195.8C752.5 195.8 759.6 189.2 760.1 181C760.7 172.8 754.5 166.2 746.4 166.2C738.3 166.2 731.2 172.8 730.6 181Z" fill="#407FFE"/>
<path d="M703.6 276.8C705.4 276.8 706.8 275.4 707 273.7C708.7 249.9 746 230.6 790 230.6C819.2 230.6 845.4 239.3 858.4 253.3C864.2 259.5 866.9 266.2 866.4 273.2C866.3 275.1 867.7 276.7 869.5 276.8C871.4 276.9 873 275.5 873.1 273.7C873.7 264.9 870.4 256.2 863.3 248.7C849.1 233.4 820.9 223.9 789.9 223.9C741.5 223.9 702.1 245.6 700.1 273.3C700 275.2 701.4 276.8 703.2 276.9C703.4 276.8 703.5 276.8 703.6 276.8Z" fill="#407FFE"/>
<path d="M881 151.1C881.8 151.1 882.6 150.8 883.3 150.2C884.7 148.9 884.7 146.8 883.5 145.4L868.7 129.4C867.4 128 865.3 128 863.9 129.2C862.5 130.5 862.5 132.6 863.7 134L878.5 150C879.1 150.7 880 151.1 881 151.1Z" fill="#407FFE"/>
<path d="M710.6 151.1C711.4 151.1 712.3 150.8 712.9 150.2L730 134.2C731.4 132.9 731.4 130.8 730.2 129.4C728.9 128 726.8 128 725.4 129.2L708.3 145.2C706.9 146.5 706.9 148.6 708.1 150C708.7 150.7 709.7 151.1 710.6 151.1Z" fill="#407FFE"/>
<path d="M623.2 314.9L637.4 314.8L653.9 343L656 314.7L670.4 314.6L666.6 365.8H652.2L635.8 337.8L633.8 365.8H619.5L623.2 314.9Z" fill="#407FFE"/>
<path d="M676.8 340.3C677.4 331.9 680.2 325.4 685 320.7C689.9 316 696.4 313.6 704.5 313.6C712.8 313.6 719.1 315.8 723.2 320.4C727.4 325 729.1 331.4 728.5 339.7C728 345.7 726.7 350.7 724.4 354.5C722.1 358.3 719.1 361.3 715.2 363.5C711.3 365.6 706.6 366.7 701.1 366.7C695.5 366.7 690.9 365.8 687.4 363.9C683.9 362.1 681.1 359.2 679.1 355.2C677.1 351.3 676.4 346.3 676.8 340.3ZM692.2 340.3C691.8 345.5 692.5 349.2 694.2 351.5C695.9 353.8 698.4 354.9 701.6 354.9C704.9 354.9 707.6 353.8 709.5 351.6C711.5 349.4 712.7 345.4 713.1 339.6C713.5 334.8 712.8 331.2 711.1 329C709.4 326.8 706.9 325.7 703.6 325.7C700.5 325.7 697.9 326.9 695.9 329.1C693.8 331.4 692.6 335.1 692.2 340.3Z" fill="#407FFE"/>
<path d="M762.6 314.2L785.9 314.1C790.5 314.1 794.2 314.7 796.9 316C799.6 317.3 801.8 319.1 803.5 321.5C805.2 323.9 806.3 326.7 806.9 329.8C807.5 333 807.6 336.3 807.3 339.9C806.9 345.4 805.9 349.8 804.4 352.8C802.9 355.9 801 358.4 798.6 360.5C796.2 362.6 793.8 363.9 791.2 364.6C787.7 365.5 784.5 366 781.7 366H758.5L762.6 314.2ZM777.3 325.8L775.1 354.1H778.9C782.2 354.1 784.5 353.7 786 353C787.4 352.3 788.6 351 789.6 349.1C790.5 347.2 791.2 344.2 791.5 340.1C791.9 334.6 791.4 330.8 789.8 328.8C788.2 326.8 785.4 325.8 781.3 325.8H777.3Z" fill="#407FFE"/>
<path d="M842.5 357.3H824.5L821.3 365.9H805.2L828.6 313.9L845.9 313.8L860.9 365.9H844.3L842.5 357.3ZM840.1 346L836 327.3L828.9 346H840.1Z" fill="#407FFE"/>
<path d="M861.8 313.6L910.5 313.3L909.4 326.3L893 326.4L889.7 365.8H873.7L877 326.4L860.7 326.5L861.8 313.6Z" fill="#407FFE"/>
<path d="M941.3 357.2H923L919.7 365.9H903.3L927.4 313.3L945.1 313.2L960.2 365.9H943.2L941.3 357.2ZM938.9 345.8L934.8 326.9L927.5 345.8H938.9Z" fill="#407FFE"/>
<mask id="mask0_176_17" style="mask-type:luminance" maskUnits="userSpaceOnUse" x="0" y="802" width="1574" height="117">
<path d="M786.6 918.9C1221.03 918.9 1573.2 892.888 1573.2 860.8C1573.2 828.712 1221.03 802.7 786.6 802.7C352.173 802.7 0 828.712 0 860.8C0 892.888 352.173 918.9 786.6 918.9Z" fill="white"/>
</mask>
<g mask="url(#mask0_176_17)">
<path d="M1573.1 802.8H1444.3V918.9H1573.1V802.8Z" fill="#E2F4FF"/>
</g>
<mask id="mask1_176_17" style="mask-type:luminance" maskUnits="userSpaceOnUse" x="0" y="802" width="1574" height="117">
<path d="M786.6 918.9C1221.03 918.9 1573.2 892.888 1573.2 860.8C1573.2 828.712 1221.03 802.7 786.6 802.7C352.173 802.7 0 828.712 0 860.8C0 892.888 352.173 918.9 786.6 918.9Z" fill="white"/>
</mask>
<g mask="url(#mask1_176_17)">
<path d="M1444.3 802.8H1322.6V918.9H1444.3V802.8Z" fill="#E2F4FF"/>
</g>
<mask id="mask2_176_17" style="mask-type:luminance" maskUnits="userSpaceOnUse" x="0" y="802" width="1574" height="117">
<path d="M786.6 918.9C1221.03 918.9 1573.2 892.888 1573.2 860.8C1573.2 828.712 1221.03 802.7 786.6 802.7C352.173 802.7 0 828.712 0 860.8C0 892.888 352.173 918.9 786.6 918.9Z" fill="white"/>
</mask>
<g mask="url(#mask2_176_17)">
<path d="M1322.6 802.8H1200.9V918.9H1322.6V802.8Z" fill="#E1F3FF"/>
</g>
<mask id="mask3_176_17" style="mask-type:luminance" maskUnits="userSpaceOnUse" x="0" y="802" width="1574" height="117">
<path d="M786.6 918.9C1221.03 918.9 1573.2 892.888 1573.2 860.8C1573.2 828.712 1221.03 802.7 786.6 802.7C352.173 802.7 0 828.712 0 860.8C0 892.888 352.173 918.9 786.6 918.9Z" fill="white"/>
</mask>
<g mask="url(#mask3_176_17)">
<path d="M1200.8 802.8H1079.1V918.9H1200.8V802.8Z" fill="#E0F2FF"/>
</g>
<mask id="mask4_176_17" style="mask-type:luminance" maskUnits="userSpaceOnUse" x="0" y="802" width="1574" height="117">
<path d="M786.6 918.9C1221.03 918.9 1573.2 892.888 1573.2 860.8C1573.2 828.712 1221.03 802.7 786.6 802.7C352.173 802.7 0 828.712 0 860.8C0 892.888 352.173 918.9 786.6 918.9Z" fill="white"/>
</mask>
<g mask="url(#mask4_176_17)">
<path d="M1079.1 802.8H957.4V918.9H1079.1V802.8Z" fill="#DFF2FF"/>
</g>
<mask id="mask5_176_17" style="mask-type:luminance" maskUnits="userSpaceOnUse" x="0" y="802" width="1574" height="117">
<path d="M786.6 918.9C1221.03 918.9 1573.2 892.888 1573.2 860.8C1573.2 828.712 1221.03 802.7 786.6 802.7C352.173 802.7 0 828.712 0 860.8C0 892.888 352.173 918.9 786.6 918.9Z" fill="white"/>
</mask>
<g mask="url(#mask5_176_17)">
<path d="M957.3 802.8H835.6V918.9H957.3V802.8Z" fill="#DEF1FF"/>
</g>
<mask id="mask6_176_17" style="mask-type:luminance" maskUnits="userSpaceOnUse" x="0" y="802" width="1574" height="117">
<path d="M786.6 918.9C1221.03 918.9 1573.2 892.888 1573.2 860.8C1573.2 828.712 1221.03 802.7 786.6 802.7C352.173 802.7 0 828.712 0 860.8C0 892.888 352.173 918.9 786.6 918.9Z" fill="white"/>
</mask>
<g mask="url(#mask6_176_17)">
<path d="M835.6 802.8H713.9V918.9H835.6V802.8Z" fill="#DDF0FF"/>
</g>
<mask id="mask7_176_17" style="mask-type:luminance" maskUnits="userSpaceOnUse" x="0" y="802" width="1574" height="117">
<path d="M786.6 918.9C1221.03 918.9 1573.2 892.888 1573.2 860.8C1573.2 828.712 1221.03 802.7 786.6 802.7C352.173 802.7 0 828.712 0 860.8C0 892.888 352.173 918.9 786.6 918.9Z" fill="white"/>
</mask>
<g mask="url(#mask7_176_17)">
<path d="M713.9 802.8H592.2V918.9H713.9V802.8Z" fill="#DBEFFF"/>
</g>
<mask id="mask8_176_17" style="mask-type:luminance" maskUnits="userSpaceOnUse" x="0" y="802" width="1574" height="117">
<path d="M786.6 918.9C1221.03 918.9 1573.2 892.888 1573.2 860.8C1573.2 828.712 1221.03 802.7 786.6 802.7C352.173 802.7 0 828.712 0 860.8C0 892.888 352.173 918.9 786.6 918.9Z" fill="white"/>
</mask>
<g mask="url(#mask8_176_17)">
<path d="M592.1 802.8H470.4V918.9H592.1V802.8Z" fill="#DAEEFF"/>
</g>
<mask id="mask9_176_17" style="mask-type:luminance" maskUnits="userSpaceOnUse" x="0" y="802" width="1574" height="117">
<path d="M786.6 918.9C1221.03 918.9 1573.2 892.888 1573.2 860.8C1573.2 828.712 1221.03 802.7 786.6 802.7C352.173 802.7 0 828.712 0 860.8C0 892.888 352.173 918.9 786.6 918.9Z" fill="white"/>
</mask>
<g mask="url(#mask9_176_17)">
<path d="M470.4 802.8H348.7V918.9H470.4V802.8Z" fill="#D9EEFF"/>
</g>
<mask id="mask10_176_17" style="mask-type:luminance" maskUnits="userSpaceOnUse" x="0" y="802" width="1574" height="117">
<path d="M786.6 918.9C1221.03 918.9 1573.2 892.888 1573.2 860.8C1573.2 828.712 1221.03 802.7 786.6 802.7C352.173 802.7 0 828.712 0 860.8C0 892.888 352.173 918.9 786.6 918.9Z" fill="white"/>
</mask>
<g mask="url(#mask10_176_17)">
<path d="M348.6 802.8H226.9V918.9H348.6V802.8Z" fill="#D8EDFF"/>
</g>
<mask id="mask11_176_17" style="mask-type:luminance" maskUnits="userSpaceOnUse" x="0" y="802" width="1574" height="117">
<path d="M786.6 918.9C1221.03 918.9 1573.2 892.888 1573.2 860.8C1573.2 828.712 1221.03 802.7 786.6 802.7C352.173 802.7 0 828.712 0 860.8C0 892.888 352.173 918.9 786.6 918.9Z" fill="white"/>
</mask>
<g mask="url(#mask11_176_17)">
<path d="M226.9 802.8H105.2V918.9H226.9V802.8Z" fill="#D7ECFF"/>
</g>
<mask id="mask12_176_17" style="mask-type:luminance" maskUnits="userSpaceOnUse" x="0" y="802" width="1574" height="117">
<path d="M786.6 918.9C1221.03 918.9 1573.2 892.888 1573.2 860.8C1573.2 828.712 1221.03 802.7 786.6 802.7C352.173 802.7 0 828.712 0 860.8C0 892.888 352.173 918.9 786.6 918.9Z" fill="white"/>
</mask>
<g mask="url(#mask12_176_17)">
<path d="M105.2 802.8H0V918.9H105.2V802.8Z" fill="#D7ECFF"/>
</g>
<path d="M735.2 311.3C735.2 311.3 734.9 309.1 732.7 308.4C732.1 308 730.2 311.8 729.3 313.3C728.4 314.8 724.2 321.6 724.2 321.6L728.7 319.9L735.2 311.3Z" fill="#D37154"/>
<path d="M725.2 319.6L712.1 302C711.6 301.4 711.8 300.5 712.4 300.1L715.4 297.8C716 297.3 716.9 297.5 717.3 298.1L730.8 316.2L725.2 319.6Z" fill="#FF4F5B"/>
<path d="M744.6 334.6L739.2 338.6C738.1 339.4 736.7 339.2 735.9 338.1L718.5 314.7C717.7 313.6 717.9 312.2 719 311.4L724.4 307.4C725.5 306.6 726.9 306.8 727.7 307.9L745.1 331.3C745.9 332.3 745.7 333.8 744.6 334.6Z" fill="black"/>
<g opacity="0.3">
<path d="M713.7 298.1C704.3 305.1 691 303.1 684 293.7C677 284.3 679 271 688.4 264C697.8 257 711.1 259 718.1 268.4C725.1 277.9 723.2 291.2 713.7 298.1Z" fill="#32477B"/>
</g>
<path d="M721.4 266.1C713.1 254.9 697.3 252.5 686.1 260.8C674.9 269.1 672.5 284.9 680.8 296.1C689.1 307.3 704.9 309.7 716.1 301.4C727.3 293.1 729.7 277.3 721.4 266.1ZM713.4 297.7C704.2 304.5 691.2 302.6 684.4 293.4C677.6 284.2 679.5 271.2 688.7 264.4C697.9 257.6 710.9 259.5 717.7 268.7C724.6 277.9 722.6 290.9 713.4 297.7Z" fill="#FF4F5B"/>
<g opacity="0.3">
<path d="M695.3 296.4C694.9 296.7 694.3 296.8 693.8 296.5C691.9 295.6 687.4 292.9 685.2 287.1C683.1 281.5 684.6 276.5 685.3 274.7C685.6 274 686.4 273.6 687.1 273.9C687.8 274.2 688.2 275 687.9 275.7C687.3 277.3 686 281.4 687.8 286.1C689.6 290.9 693.4 293.2 695 294C695.7 294.3 696 295.2 695.6 295.9C695.7 296.1 695.5 296.2 695.3 296.4Z" fill="white"/>
</g>
<g opacity="0.3">
<path d="M707.3 297C703.3 299.5 699.2 298.2 699 298.1C698.3 297.8 697.9 297 698.1 296.3C698.4 295.6 699.2 295.2 699.9 295.4C700 295.4 702.9 296.4 705.6 294.6C706.3 294.2 707.1 294.4 707.5 295C708.1 295.8 707.9 296.6 707.3 297Z" fill="white"/>
</g>
<path d="M714.8 356.4C714.8 356.4 718.5 345.2 719.5 343C720.4 340.8 720.7 328.8 721.1 326.3C721.5 323.8 723.9 321 724.7 320.3C725.6 319.6 733.3 312.2 734.2 311.6C735.6 310.6 737.5 311 738.6 311.7C739.7 312.4 741.7 313.4 741.3 315C742.5 315.4 743.5 316.5 743.3 318.3C744.4 318.3 746.5 320.7 746.5 321.8C746.5 322.9 745.4 324.5 745.4 324.5C745.4 324.5 747.1 325 747.6 325.8C748.1 326.8 747.9 327.5 747.2 329.1C746 331.7 744.9 335.5 743.9 337.2C741.8 340.8 739.8 341.7 732.5 349.5C729.7 353.3 725 361.7 725 361.7L714.8 356.4Z" fill="#F4A280"/>
<path d="M455.3 448.2C460.9 464.8 526.1 480.8 526.1 480.8L530.6 459.5C530.6 459.5 488.3 441.3 488.8 438.4C466.5 421.9 455.9 439.1 455.3 448.2Z" fill="#1C2028"/>
<path d="M511.6 347.7C511.6 347.7 503.3 351.2 496.6 365.3C489 381.4 453.4 442.7 455.3 448.2C466.5 463.7 484.1 452.3 488.7 438.3C489.2 435.4 517.3 390.6 531.9 386.3C537.8 384.6 511.6 347.7 511.6 347.7Z" fill="#1C2028"/>
<path d="M575.8 353C572.8 344.2 580.5 325.3 580.5 325.3L557.1 318.1C557.1 318.1 554.1 338.3 547 344.4C540.7 349.8 525.1 347.2 525.1 347.2C525.1 347.2 516.7 384.8 549.1 393.5C578.1 401.3 593.1 366.5 593.1 366.5C593.1 366.5 578.4 360.8 575.8 353Z" fill="#F4A280"/>
<path d="M538.6 852.8C541.5 858.9 542 864.6 545.8 870C546.2 870.6 547.2 871.2 547.7 871.6L564.6 869.8C566.8 867.1 566.8 866.9 563.6 862.3C562.7 861 563.3 859.1 562.3 858.1C559.3 854.9 555.5 846.6 553.1 842.2C551 838.3 548.4 834.3 546.9 831.5C546.3 830.3 546.2 829.5 546.1 828.6C545.9 827.1 545.8 824.6 546 822.4C547.1 810.9 553.5 795.9 546.8 797.4C545.2 797.7 536.9 796.7 536 803.4C535.5 806.9 533.5 813.4 533.5 819.7C533.5 824.7 532.6 830.2 531.9 833.3C531.4 835.2 531 839.5 531.5 841.5C532.3 845.8 536.7 848.9 538.6 852.8Z" fill="#F4A280"/>
<path d="M531.8 833.399C532.5 833.199 533.4 833.099 534.6 833.199C544.5 834.399 554.6 859.799 562.3 858.199C563.9 859.499 564.3 859.299 565.3 859.999C565.9 860.399 566.4 860.999 566.8 861.699C568.1 863.999 570 868.099 566.6 872.899C558.9 871.599 553.2 870.299 545.7 865.299C538.3 860.399 537 845.799 530 841.599C529.8 840.499 530.3 838.699 530.8 837.099C531.3 835.499 531.7 833.899 531.8 833.399Z" fill="black"/>
<path d="M566.6 872.899C560.8 871.399 557.5 870.599 553.4 865.799C548.7 860.299 546.9 848.099 540.6 843.999C538.4 842.499 533.6 841.299 530 841.499C530.8 844.499 537.4 851.799 539.1 856.199C540 858.499 540.2 866.099 545.8 872.799C557.7 872.899 566.6 872.899 566.6 872.899Z" fill="#1C2028"/>
<path d="M540.6 872.9H536.2L531.2 840.5L539.7 842.3L540.6 872.9Z" fill="black"/>
<path d="M568.6 493.7C568.6 493.7 588.5 504.5 590.5 537.6C596.2 633 571 690 569.7 700.6C568.5 710.2 566.4 721 566.1 731.6C565.5 751.2 546 822.4 546 822.4C546 822.4 546.3 821 540.8 821.3C535.5 821.6 533.6 820.4 533.6 820.4C533.6 820.4 531.6 764.1 532.7 729.7C533.2 712.3 542.9 694.2 542.5 691.1C540.9 679.4 537.3 574.9 537.3 574.9C537.3 574.9 529.7 648.5 526.3 659.9C523.2 670.3 516.2 703.5 513.7 708.8C511.1 714.1 509 721.3 508.2 724.2C507.4 727.1 505.3 742.8 503.3 747.1C501.3 751.4 475.2 817 475.2 817L461.4 819.8C461.4 819.8 470.7 732.6 474.4 723.1C478.1 713.4 489.7 693.3 490 687.2C490.3 681.1 482.5 616.6 481.9 578C481.3 541.6 486.1 525.5 488.2 515.9C490.3 506.2 501.2 495 501.2 495L568.6 493.7Z" fill="#F4A280"/>
<mask id="mask13_176_17" style="mask-type:luminance" maskUnits="userSpaceOnUse" x="474" y="493" width="121" height="203">
<path d="M571.5 493.7C571.5 493.7 591.4 504.5 593.4 537.6C599.1 633 577.7 680.4 576.4 691C575.2 700.6 486.8 693.2 487 687.1C487.3 681 475.2 616.6 474.6 578C474 541.6 478.8 525.5 480.9 515.9C483 506.2 493.9 495 493.9 495L571.5 493.7Z" fill="white"/>
</mask>
<g mask="url(#mask13_176_17)">
<path d="M571.5 493.7C571.5 493.7 591.4 504.5 593.4 537.6C599.1 633 577.7 680.4 576.4 691C575.2 700.6 486.8 693.2 487 687.1C487.3 681 475.2 616.6 474.6 578C474 541.6 478.8 525.5 480.9 515.9C483 506.2 493.9 495 493.9 495L571.5 493.7Z" fill="black"/>
</g>
<mask id="mask14_176_17" style="mask-type:luminance" maskUnits="userSpaceOnUse" x="530" y="336" width="62" height="84">
<path d="M531.4 345.8L547.6 337.9C547.6 337.9 552.9 336.4 557.7 336.9C567.3 337.9 574.2 343.1 574.2 343.1L584.6 351.4L591.2 389.8C591.2 389.8 594.7 423.1 569.5 419.5C544.3 415.9 530.9 385.5 530.9 385.5L531.4 345.8Z" fill="white"/>
</mask>
<g mask="url(#mask14_176_17)">
<path d="M526 344.8L545.6 334.7C545.6 334.7 553.3 325 558.1 325.3C562.9 325.6 572 337.5 572 337.5L584.7 347.8L592.2 386.3C592.2 386.3 592.8 422.2 567.6 418.6C542.4 415 529.3 381.9 529.3 381.9L526 344.8Z" fill="#EAEEF1"/>
</g>
<path d="M605.4 411.7C609.9 396.7 599.6 387.3 597.4 377.1C595.2 366.9 594.7 356.4 594.7 356.4C594.7 356.4 587.2 352.4 584.6 351.4C578.1 348.9 570.7 347.3 557.4 345.9C546 344.7 537.9 345.3 531.4 345.8C526.4 346.2 511.6 347.7 511.6 347.7C511.6 347.7 511.4 370.7 514.4 388.4C517.4 406.1 520.1 432.5 515.3 447.7C510.5 463 483.7 494.6 483.7 494.6C483.7 494.6 515.4 520.8 551.6 520.6L571.4 518.9C590.9 515.6 592.6 508.6 592.6 508.6C592.6 508.6 579 482.1 580.9 463.3C582.9 444.5 582.9 434.5 588.5 430.3C594.2 426 600.9 426.7 605.4 411.7Z" fill="#1C2028"/>
<path d="M688.3 422.7C705.8 421.8 732.4 353.2 732.4 353.2L716.1 345.8C716.1 345.8 688.9 387.8 686.9 390.7C672.7 411.6 676.7 417.1 688.3 422.7Z" fill="#1C2028"/>
<path d="M594.8 383.3C600.3 396.1 605.8 402.7 605.8 402.7C605.8 402.7 685.2 426.3 689.6 422.5C696.9 408.3 697.6 401.1 676.9 391.9C673.6 390.6 635.4 372.1 616.6 364.8C609.8 362.2 588.3 355.5 588.3 355.5C588.3 355.5 584.6 359.3 594.8 383.3Z" fill="#1C2028"/>
<path d="M577.6 333.7C579 328.9 580.5 325.2 580.5 325.2L557.1 318C557.1 318 556.7 321 555.7 325C554.5 329.3 577.2 334.8 577.6 333.7Z" fill="#D37154"/>
<path d="M546.1 286.9C546.2 291.4 546.5 299.7 550.2 308.9C550.4 309.5 551.4 311.8 553 314.7C556.2 320.5 558 323.9 562 326.3C566.3 328.9 570.7 329.1 572.3 329.1C575.7 329 578.1 328 582 326.3C584.4 325.2 588.5 323.4 593.1 319.9C593.1 319.9 606.7 309.5 611.9 290.6C611.9 290.6 611.9 290.5 612 290.3C612 290.2 612.1 290.1 612.1 290C614.6 282.3 616.2 278.3 615.9 272.4C615.8 271.5 615.7 270.5 615.6 269.5C614.9 264.6 613.2 259.3 610.3 254.4C607.1 249.1 602.6 244.3 596.4 241.2C594.8 240.4 593.2 239.7 591.4 239.2C589.3 238.6 587.2 238.1 585 237.9C574.8 236.8 564.4 240.4 558 247C553.8 251.3 552.2 256 549.4 265C549.3 265.3 549.2 265.5 549.1 265.8C549 266.2 548.9 266.5 548.9 266.5C546.2 275 546.1 286.9 546.1 286.9Z" fill="#F29E77"/>
<path d="M606.5 298.2C606.5 298.2 611.6 288.1 615.4 290.8C619.2 293.4 622.1 298.8 619 304.3C615.8 309.9 610.1 315.4 605.3 314.7C604.7 314.6 603.1 314.4 602 313.1C601.1 312.1 601 310.8 600.9 310.3C602.8 306.2 604.6 302.2 606.5 298.2Z" fill="#F29E77"/>
<path d="M534.1 258C528.4 283.1 542.1 311.4 568.2 319.2C594.7 327.1 622 310.2 630.5 285.8C640.1 258.4 624.8 225.4 596 218.1C568.6 211 540.3 230.7 534.1 258Z" fill="#6B3B32"/>
<path d="M622.4 226.7C616 212.4 595.9 203.6 581.6 207.8C563.4 213 558.1 238.2 554 252.8C554 252.8 550.6 269.8 560 318C564.1 338.9 576.1 357.3 593.6 369.5C602 363.7 612.8 354.1 615.2 340.5C617.6 327 609.8 321.1 606.5 306.6C598.3 270.3 633 250.3 622.4 226.7Z" fill="#5E302A"/>
<path d="M466.3 856C469.2 862.1 469.7 867.8 473.5 873.2C473.9 873.8 474.9 874.4 475.4 874.8L492.3 873C494.5 870.3 494.5 870.1 491.3 865.5C490.4 864.2 491 862.3 490 861.3C487 858.1 483.2 849.8 480.8 845.4C478.7 841.5 476.1 837.5 474.6 834.7C474 833.5 473.9 832.7 473.8 831.8C473.6 830.3 473.5 827.8 473.7 825.6C474.8 814.1 481.2 799.1 474.5 800.6C472.9 800.9 464.6 799.9 463.7 806.6C463.2 810.1 461.2 816.6 461.2 822.9C461.2 827.9 460.3 833.4 459.6 836.5C459.1 838.4 458.7 842.7 459.2 844.7C460 849 464.4 852.1 466.3 856Z" fill="#F4A280"/>
<path d="M459.5 836.6C460.2 836.4 461.1 836.3 462.3 836.4C472.2 837.6 482.3 863 490 861.4C491.6 862.7 492 862.5 493 863.2C493.6 863.6 494.1 864.2 494.5 864.9C495.8 867.2 497.7 871.3 494.3 876.1C486.6 874.8 480.9 873.5 473.4 868.5C466 863.6 464.7 849 457.7 844.8C457.5 843.7 458 841.9 458.5 840.3C459 838.6 459.4 837.1 459.5 836.6Z" fill="black"/>
<path d="M494.3 876.099C488.5 874.599 485.2 873.8 481.1 869C476.4 863.5 474.6 851.3 468.3 847.2C466.1 845.7 461.3 844.5 457.7 844.7C458.5 847.7 465.1 855 466.8 859.4C467.7 861.7 467.9 869.3 473.5 876C485.4 876.1 494.3 876.099 494.3 876.099Z" fill="#1C2028"/>
<path d="M468.3 876.1H463.9L459 843.7L467.4 845.5L468.3 876.1Z" fill="black"/>
<path d="M1154.7 687.9C1154.3 686.6 1155 685.2 1156.3 684.7C1156.3 684.7 1157 684.4 1158.4 684C1159.6 683.7 1161.3 683.1 1163.8 682.1C1170.6 679.4 1177 675.7 1182.9 671C1189.3 665.9 1198.1 656.9 1203.6 643.4C1209.2 629.3 1209.4 612.9 1204.3 598.4C1201.3 589.9 1196.3 582.2 1190 576.3C1189.8 576.1 1189.6 576 1189.5 575.8C1188.6 578.8 1187.5 581.7 1186.3 584.5C1180.6 597.6 1171.1 608.4 1159.4 615C1153.1 618.5 1146.3 620.6 1139.9 620.9C1133.2 621.3 1126.1 619.6 1120.1 616.1C1113.9 612.5 1109.1 607.2 1106.5 601.2C1103.9 595 1103.8 587.8 1106.2 581.3C1108.2 575.6 1111.9 570.4 1117.1 565.8C1121.6 561.8 1126.9 558.8 1132.9 556.7C1143.6 553.2 1155.4 553 1166.9 556.2C1173.4 558 1179.7 560.8 1185.3 564.5C1186.2 557.9 1186.3 551.1 1185.4 544.2C1184.5 537.8 1182.6 531.6 1179.9 525.6C1178.7 522.9 1177.2 520.4 1175.6 517.8L1172.4 513.4C1171.9 512.7 1171.2 512 1170.6 511.3C1170.2 510.8 1169.8 510.4 1169.4 510C1164.9 505.3 1160 501.4 1154.7 498.5C1149.4 495.5 1143.6 493.2 1137.5 491.7C1136.8 491.5 1136.1 491.4 1135.4 491.2C1135.3 492.5 1135.2 493.8 1135.1 495.2C1133.8 505.4 1130.8 514.7 1126 522.8C1123.1 527.7 1120 531.8 1116.7 535.3C1112.8 539.5 1108.5 542.9 1103.8 545.5C1098.3 548.5 1092.4 550 1086.8 549.8C1080 549.6 1074 547.1 1069.6 542.9C1065.2 538.6 1062.6 532.1 1062.6 525.1C1062.6 518.8 1064.7 512.3 1068.6 506.8C1077.2 494.7 1090.4 488.8 1100.1 485.9C1109.4 483.2 1119.3 482.4 1129.3 483.6C1129.1 479.1 1128.4 474.6 1127.3 470.4C1125.4 463.4 1122.2 456.9 1117.9 451.1C1109.2 439.4 1098.3 433.1 1090.8 429.9C1083.9 427 1076.9 425.4 1069.4 425C1067 424.8 1065.2 424.9 1063.7 425C1062.3 425 1061.5 425 1061.5 425C1060.1 425 1059 423.9 1058.9 422.5C1058.8 421.1 1059.9 419.9 1061.2 419.8C1061.2 419.8 1061.9 419.7 1063.3 419.6C1064.5 419.5 1066.7 419.3 1069.6 419.5C1077.5 419.8 1085.4 421.5 1092.9 424.6C1101.2 428 1113 434.8 1122.6 447.5C1127.4 453.9 1130.9 461 1133.1 468.8C1134.5 473.8 1135.3 479.1 1135.5 484.6C1136.7 484.8 1138 485.1 1139.2 485.4C1145.8 487.1 1152.2 489.6 1158 492.9C1163.9 496.2 1169.3 500.5 1174.4 505.7C1174.8 506.1 1175.1 506.5 1175.5 506.9C1176.3 507.7 1177.1 508.6 1177.8 509.6L1180.9 513.9L1181.2 514.4C1182.9 517.1 1184.6 520 1185.9 523C1188.9 529.5 1190.9 536.3 1191.9 543.4C1193.1 552.2 1192.8 560.8 1191.2 569C1192.3 569.9 1193.4 570.9 1194.4 571.8C1201.4 578.5 1206.8 587 1210.2 596.4C1215.8 612.3 1215.5 630.3 1209.3 645.8C1203.3 660.5 1193.6 670.2 1186.6 675.7C1180.2 680.8 1173.2 684.7 1165.9 687.5C1163.3 688.5 1161.3 689.1 1160 689.4C1158.6 689.8 1157.9 689.9 1157.9 689.9C1157.7 689.9 1157.5 690 1157.3 690C1156.1 689.8 1155 689 1154.7 687.9ZM1165.1 562.3C1155 559.6 1144.2 559.7 1134.9 562.8C1129.9 564.6 1125.2 567.3 1121.3 570.7C1116.9 574.6 1113.9 578.9 1112.2 583.5C1110.4 588.5 1110.5 594 1112.4 598.6C1114.4 603.3 1118.2 607.5 1123.2 610.3C1128.1 613.1 1133.9 614.5 1139.3 614.2C1144.8 613.9 1150.6 612.1 1156 609.1C1166.4 603.3 1175 593.5 1180.1 581.7C1181.6 578.3 1182.8 574.8 1183.8 571.1C1178.2 567.2 1171.8 564.2 1165.1 562.3ZM1101.7 492C1089.5 495.6 1079.6 502.1 1073.7 510.4C1070.6 514.8 1068.9 519.9 1068.9 524.9C1068.9 530.1 1070.7 534.9 1073.9 538.1C1077 541.2 1081.7 543 1086.7 543.2C1091.1 543.4 1095.9 542.2 1100.4 539.7C1104.5 537.5 1108.3 534.5 1111.8 530.8C1114.9 527.7 1117.7 524 1120.3 519.5C1124.7 512.1 1127.5 503.6 1128.7 494.3C1128.9 492.9 1129 491.4 1129 490C1119.7 488.8 1110.3 489.5 1101.7 492Z" fill="black"/>
<path d="M1312.1 652.6H1041.4V861.4H1312.1V652.6Z" fill="#FFC592"/>
<path d="M1041.4 652.6L1091.4 699.2H1357.6L1312.2 652.6H1041.4Z" fill="#FFC592"/>
<g opacity="0.5">
<path d="M1091.4 699.2L1042 654.9L1089.9 715.6H1312.2V699.2" fill="black"/>
</g>
<path d="M1301.3 813.6H1277.4V840.6H1301.3V813.6Z" fill="#F5F5F5"/>
<path d="M1041.4 652.6L985.8 699.2H1041.4V652.6Z" fill="#FF4F5B"/>
<g opacity="0.4">
<path d="M1041.4 652.6L985.8 699.2H1041.4V652.6Z" fill="#EA9036"/>
</g>
<path d="M1130.02 806.722L1149.85 826.913L1217.13 760.84L1197.31 740.648L1130.02 806.722Z" fill="white"/>
<path d="M1150.72 740.237L1130.52 760.066L1196.6 827.348L1216.79 807.519L1150.72 740.237Z" fill="white"/>
<path d="M202.5 690.2C194.9 685.4 186.3 682.5 177.4 681.6C173.3 681.2 168.8 681.3 165.5 683.8C164.8 684.3 164.1 685.1 164.3 686C164.4 686.6 165 687.1 165.5 687.5C175.7 695.2 191.1 696.2 202.5 690.2Z" fill="#348C93"/>
<path d="M201.9 689.5C196.2 685.1 190.5 680.6 185.7 675.2C180.9 669.8 177 663.5 175.5 656.4C175.1 654.3 174.9 651.8 176.3 650.1C189.2 660.2 199.4 673.3 201.9 689.5Z" fill="#348C93"/>
<path d="M202.4 690.1C201.4 683 201.1 675.8 202.7 668.8C204.3 661.8 208.1 655.2 214 651.2C216.2 656.4 215.3 662.4 213.7 667.9C211.3 676.3 207.5 684.4 202.4 691.6" fill="#348C93"/>
<path d="M215.1 712.8C207.4 713.7 200.7 717.8 195 723C189.3 728.2 185.2 735.2 183.5 742.8C191 742.3 197.5 737 202.1 731C206.7 725 210 718.5 215.1 712.9" fill="#348C93"/>
<path d="M217.8 716.4C211.6 701.1 213.8 682.7 223.5 669.4C227.9 685 226.3 702.7 217.8 716.4Z" fill="#348C93"/>
<path d="M234.6 736.4C227.6 736 220.5 737.6 214.5 741.1C208.4 744.6 203.4 749.9 200.3 756.2C199.9 757.1 199.5 758.1 200.1 758.9C200.6 759.6 201.6 759.6 202.4 759.6C209.2 759.2 215.2 755.1 220.1 750.4C225.1 745.8 229.4 740.4 234.8 736.4" fill="#348C93"/>
<path d="M234 735.3C230.4 723.8 230.2 711.2 233.4 699.6C234.7 695 236.8 690.2 241 688C241.4 687.8 241.8 687.7 242.2 687.8C242.6 687.9 242.8 688.3 242.9 688.7C244.4 691.9 244.9 695.5 244.7 699C244.5 702.5 243.8 705.9 243.1 709.4C241.8 715.7 241 722.6 237.6 728C236.8 729.3 236 730.7 235.4 732.1C234.7 733.5 234.7 734 234.1 735.1" fill="#348C93"/>
<path d="M278.4 741.9C275.1 729.4 278.6 714.3 286.5 704C287.1 703.2 287.8 702.4 288.8 702.5C290.3 702.6 290.6 704.6 290.6 706C289.9 718.8 285.7 731.4 278.4 741.9Z" fill="#348C93"/>
<path d="M282.4 744.6C297.6 748.6 315 744.7 327.6 735.4C320.1 731.6 311.3 730.5 303.1 732.4C294.9 734.3 287.5 738 282.4 744.6Z" fill="#348C93"/>
<path d="M285.7 736.3C294.2 722.4 310.5 713.4 326.7 712.6C324.8 719.2 319.4 724.3 313.3 727.4C307.2 730.5 300.3 731.9 293.6 733.2C291 733.7 287.4 734.3 285.7 736.3Z" fill="#348C93"/>
<path d="M279.2 695.9C281.5 688 283.8 680.1 284.4 671.9C285 663.7 283.9 655.2 279.6 648.1C271.7 663.5 270.9 681.4 278.9 696.7" fill="#348C93"/>
<path d="M306 682.4C315.3 665.5 334.2 652 353.4 650.1C346 668.6 325.8 682.8 306 682.4Z" fill="#348C93"/>
<path d="M300.1 685.7C314 687.8 325.8 696.7 338.7 702C341.5 703.1 344.5 704.1 347.4 703.7C350.4 703.3 353.3 701.3 354 698.4C354.6 696 353.4 693.4 351.7 691.6C350 689.8 347.7 688.7 345.4 687.8C331.3 681.9 316.2 681.8 301.3 685.3" fill="#348C93"/>
<path d="M292.1 695.5C295.2 696.4 296.3 698 298.8 700.1C307.2 707.3 317.3 712.5 328.1 715.1C329.2 715.4 330.7 715.5 331.2 714.5C331.7 713.6 331.1 712.5 330.4 711.8C325.9 706.2 319.5 702.3 312.7 699.8C305.9 697.3 300.1 694.3 292 694.9" fill="#348C93"/>
<path d="M283.1 636.8C294.4 647.3 310.2 652.7 325.6 651.2C326.3 651.1 327.1 651 327.5 650.5C328.6 649.3 327.3 647.5 326 646.6C313.5 636.9 298.4 632.8 283.1 636.8Z" fill="#348C93"/>
<path d="M293.8 632.9C308.7 621.7 329.1 618.4 346.8 624.2C340.1 630.8 330.9 634.3 321.5 635.3C312.2 636.2 302.9 635.1 293.8 632.9Z" fill="#348C93"/>
<path d="M289.5 605.9C288.3 593.4 289.1 583.6 288.2 571.1C288.1 570.1 287.9 568.9 287 568.5C285.7 568 284.6 569.6 284.2 570.9C280.5 582.4 282.5 595.7 289.5 605.6" fill="#348C93"/>
<path d="M288.6 607.3C297 602.1 303.4 595.3 309.2 587.2C313.3 581.6 316.7 574.9 315.8 568.1C310.1 568 304.6 571.1 300.9 575.5C297.2 579.9 295 585.3 293.3 590.8C291.7 596.2 290.6 601.9 288.6 607.3Z" fill="#348C93"/>
<path d="M308.9 601.6C327.4 594.7 344.7 584.5 359.7 571.6C353.6 569.2 346.7 570.6 340.6 573.1C326.7 578.7 315.4 588.1 308.6 601.5" fill="#348C93"/>
<path d="M294.3 614.1C303.7 615.1 313.2 615.8 322.5 614.2C331.6 612.7 340.3 609 348.8 605.4C349.5 605.1 350.3 604.7 350.6 604C350.9 603.2 350.6 602.3 350 601.7C349.4 601.1 348.6 600.9 347.8 600.6C338.5 598 328.5 599.2 319.3 602.3C310.2 605.6 302.7 609.3 294.3 614.1Z" fill="#348C93"/>
<path d="M240.8 637.2C234.4 624.3 234.8 609.2 240.3 595.9C244.2 601.8 244.7 609.4 244 616.4C243.3 623.5 241.1 630.7 241 637.8" fill="#348C93"/>
<path d="M215.2 624.3C199.2 624 183.2 630.8 172.4 642.5C180.4 643.8 188.6 641.7 195.8 638.2C203.1 634.7 209.5 629.7 215.9 624.8" fill="#348C93"/>
<path d="M198 618.6C190.2 618 182.7 617 175.2 619.3C167.7 621.6 160.8 626.8 157.8 634.1C165.1 634.9 172.5 633.1 179.2 630.1C185.9 627 192 622.7 198 618.6Z" fill="#348C93"/>
<path d="M223.5 618.8C216.5 614.2 209.3 609.5 201.1 607.6C192.9 605.7 183.4 607.1 177.7 613.3C184.3 617.2 192.4 617.6 200 617.6C207.7 617.6 217.1 617.5 224.3 620.1" fill="#348C93"/>
<path d="M223.5 619.2C211.5 607.4 206.9 586.2 211.8 570.1C221.2 584.4 225.5 602.1 223.5 619.2Z" fill="#348C93"/>
<path d="M256.6 585.8C258.9 580.5 260.5 575 262.5 569.6C264.5 564.2 267.1 559 270.9 554.7C274.7 550.4 280.1 547.3 285.8 547C282.2 563.2 271.4 577.8 256.9 585.9" fill="#348C93"/>
<path d="M250.6 592.7C246.8 587.5 242.5 580.5 237.4 576.7C232.3 572.8 225.7 570.5 219.5 572C225.8 583.3 237.7 591.2 250.6 592.7Z" fill="#348C93"/>
<path d="M251.8 586.2C249.3 580 246.9 573.6 245.9 567C244.9 560.4 245.5 553.3 248.9 547.5C255.5 560 257.6 573.4 252.2 586.4" fill="#348C93"/>
<path d="M256.6 547.5C260.3 535.1 271.7 526 283.9 521.9C285.4 521.4 287.1 520.9 288.7 521.2C290.3 521.4 291.9 522.5 292.2 524.1C292.6 526.2 290.9 528.1 289.3 529.5C279.8 537.6 268.6 543.7 256.6 547.5Z" fill="#348C93"/>
<path d="M256.8 537.4C257.3 529.4 257.8 521.3 260.4 513.8C263 506.2 268 499.2 275.3 495.9C276.5 504 273 512 268.7 518.9C264.4 525.8 259.3 532.4 256.7 540.1" fill="#348C93"/>
<path d="M256.6 542.8C253.5 533.8 253.2 522.3 247.8 514.5C244 509 238 505.3 234.7 499.5C232.5 504.9 233.2 511.2 235.5 516.6C237.8 522 241.5 526.6 245.5 530.9C249.4 535.1 252.9 538.3 256.6 542.8Z" fill="#348C93"/>
<path d="M256.6 809C255.8 809 255.8 808.3 255.7 807.5C255.7 807 255.7 806.4 255.7 805.5C255.7 803.7 255.6 801.1 255.6 797.7C255.5 790.9 255.5 781.3 255.5 768.9C255.4 743.6 255.4 709.8 255.4 674C255.4 638.1 255.4 604.4 255.5 579.1C255.5 566.8 255.6 557.1 255.6 550.3C255.6 546.9 255.7 544.3 255.7 542.5C255.7 541.6 255.7 540.9 255.7 540.5C255.7 539.7 255.7 539 256.6 539C257.5 539 257.4 539.7 257.5 540.5C257.5 541 257.5 541.6 257.5 542.5C257.5 544.3 257.6 546.9 257.6 550.3C257.7 557.1 257.7 566.7 257.7 579.1C257.8 604.4 257.8 638.2 257.8 674C257.8 709.8 257.8 743.6 257.7 768.9C257.7 781.2 257.6 790.9 257.6 797.7C257.6 801.1 257.5 803.7 257.5 805.5C257.5 806.4 257.5 807.1 257.5 807.5C257.5 808.3 257.4 809 256.6 809Z" fill="#348C93"/>
<path d="M256.6 656.5C256.5 656.5 256.5 656.5 256.4 656.5C255.6 656.4 255.7 655.6 255.8 655C255.9 654.6 256 653.9 256.3 653.1C257 651.1 258.4 649 260.3 647.3C262.3 645.5 265.1 643.7 268.8 642C272.3 640.4 276 638.8 279.8 637.2C288.9 633.5 296.5 631 300.3 629.8C303.1 628.9 305.3 628.3 306.6 628C309.3 627.3 309.7 627.2 309.9 628C310.1 628.8 309.7 629 307.1 629.8L300.9 631.9C293.9 634.3 287.1 636.8 280.7 639.5C279.4 640 278.2 640.6 276.9 641.1C270.8 643.7 265.1 646.1 261.7 649C259.5 650.9 258.5 652.8 258.1 653.8C257.8 654.6 257.6 655.2 257.5 655.6C257.4 655.8 257.2 656.5 256.6 656.5Z" fill="#348C93"/>
<path d="M260.7 649.2C260.5 649.2 260.4 649.1 260.2 649C259.6 648.5 260 647.9 260.6 647.1L260.8 646.9C261.2 646.4 261.6 645.8 262.3 645C264 642.9 266.2 640.3 268.7 637.6C274.9 630.7 283 622.7 291.7 615C302.7 605.3 311.5 597.6 315.8 593.8L323.2 587.5L325.2 585.8C326 585.2 326.5 584.7 327.1 585.3C327.6 585.9 327.1 586.4 326.4 587.1L324.5 588.9L317 595.7L293.3 616.8C281.8 627 274 635.1 270.3 639C267.4 642.1 265.2 644.6 263.8 646.2L262.1 648.2C261.5 648.7 261.1 649.2 260.7 649.2Z" fill="#348C93"/>
<path d="M282.6 625.5C282.5 625.5 282.3 625.5 282.2 625.4C281.4 625 281.5 624.8 282.9 620.9C283.6 619.1 284.5 616.7 285.4 614.1C286.5 610.9 287.3 607.9 287.8 606C288.5 603.4 288.6 603 289.4 603.1L289.8 603.2L290 603.5C290.5 604.3 289.4 610.2 287.7 614.9C286.6 618 285.5 620.6 284.8 622.2C283.6 624.8 283.2 625.5 282.6 625.5Z" fill="#348C93"/>
<path d="M256.7 661.9C256.2 661.9 255.8 661.3 254.6 659.9L250.9 655.2C247.4 650.7 243.3 645.4 238.7 639.6C234 633.7 229.8 628.6 226.3 624.2L222.5 619.5C221 617.6 220.6 617.2 221.3 616.6C222 616 222.3 616.4 224 618.2C225 619.3 226.4 620.8 228 622.7C230.3 625.3 234.9 630.7 240.7 638C246.5 645.2 250.7 651 252.7 653.8C254.2 655.8 255.4 657.5 256.2 658.7C257.6 660.7 257.9 661.2 257.2 661.7C257 661.8 256.8 661.9 256.7 661.9Z" fill="#348C93"/>
<path d="M245.2 646.3C245.1 646.5 242 642.8 240.4 637.3C239.2 633.4 239.2 629.8 239.3 628.2H239.7C239.5 628.9 239.4 629.3 239.3 629.3C239.2 629.3 239.2 628.9 239.3 628.2H239.7C239.8 629.8 240.1 633.3 241.2 637.1C242.7 642.4 245.4 646.1 245.2 646.3Z" fill="#348C93"/>
<path d="M230.3 628.4C229.9 628.4 229.6 628.1 229.4 628C228.9 627.6 228.1 626.9 226.6 626.4C224.6 625.6 221.4 625.4 217.6 625.7C214.6 625.9 211.5 626.4 208.3 627.2C207.4 627.4 206.7 627.6 206.1 627.8C204.2 628.3 203.7 628.4 203.5 627.7L203.4 627.4L203.6 627.1C203.8 626.6 205.2 626 207.8 625.2C209.5 624.7 213.1 623.7 217.5 623.4C221.6 623 225.2 623.4 227.5 624.5C229.6 625.4 231.2 627 231.1 627.8V628.4L230.7 628.5C230.5 628.4 230.4 628.4 230.3 628.4Z" fill="#348C93"/>
<path d="M226.8 623.9C226.4 623.9 225.9 623.7 225.1 623.4C224.2 623.1 222.9 622.5 221.3 622C219 621.2 214.3 619.8 208.6 619.4C202.9 619 198 619.6 195.7 620.1C194 620.4 192.7 620.7 191.8 620.9C190.3 621.3 189.7 621.4 189.4 620.6C189.1 619.8 189.8 619.5 191.3 619C192.3 618.6 193.6 618.3 195.3 617.9C197.7 617.3 202.7 616.5 208.9 617C215.1 617.5 219.9 619.1 222.2 620C223.8 620.6 225.1 621.2 226 621.7C227.3 622.4 228 622.8 227.6 623.6C227.3 623.7 227.1 623.9 226.8 623.9Z" fill="#348C93"/>
<path d="M256.5 604.7C255.8 604.7 255.2 603.3 252.1 591C248.8 577.9 249.1 577.4 249.3 577.1L249.5 576.8L250.2 576.6L250.5 576.8C250.8 577 251.3 577.3 254.6 590.4C258.1 604.4 257.8 604.4 256.9 604.7C256.7 604.7 256.6 604.7 256.5 604.7Z" fill="#348C93"/>
<path d="M256.7 604.7C256.1 604.7 255.9 604.1 255.4 603.1C254.8 601.7 253.7 599.1 251.9 596.6C250 593.8 247.7 591.9 246.6 591.1C245.9 590.5 245.3 590.1 245.7 589.4L245.9 589.1L246.3 589C247 588.8 248.8 590 249.3 590.4C250.9 591.5 252.6 593.3 254 595.2C256.7 599.1 257.9 603.5 257.5 604.3L257.3 604.7H256.9C256.9 604.7 256.8 604.7 256.7 604.7Z" fill="#348C93"/>
<path d="M256.6 777C255.9 777 255.8 776.3 255.7 775.5C255.6 774.8 255.3 773.8 255 772.4C254.5 770.6 253.4 766.9 251 762.1C246.8 753.6 239.1 742.7 229.8 732.3C228.8 731.2 227.9 730.1 226.9 729C223.1 724.7 219.6 720.7 216.5 716.8C212.6 712 209.3 707.2 206.9 703C204.3 698.5 202.8 694.9 202 692.7C201.5 691.3 201.2 690.4 201 689.7C200.7 688.6 200.5 687.9 201.3 687.7C202.1 687.5 202.3 688 202.7 689.2C202.9 689.8 203.3 690.8 203.8 692C204.7 694.2 206.3 697.7 208.8 701.9C211.2 706 214.5 710.6 218.3 715.3C221.2 718.9 224.5 722.7 228 726.6C229.2 727.9 230.4 729.3 231.6 730.7C241 741.3 248.8 752.4 252.9 761.2C255.3 766.3 256.3 770.1 256.7 772C257 773.5 257.2 774.4 257.2 775.1C257.3 776.2 257.4 776.9 256.6 777Z" fill="#348C93"/>
<path d="M256.7 777C256.6 777 256.4 777 256.3 776.9C255.5 776.6 255.8 775.8 256.1 775.2L256.2 774.9C256.4 774.5 256.6 773.9 256.9 773.2C257.6 771.8 258.7 769.4 260.6 766.3C263.6 761.3 268.3 755.5 273.7 748.7L276.1 745.7C279.6 741.3 282.7 737.8 285.4 734.9C288.3 731.9 291.4 729.2 294.2 727.1C297 725 299.5 723.7 301 723C301.6 722.7 302.2 722.4 302.6 722.3L303 722.1C303.7 721.8 304.4 721.5 304.8 722.3C305.1 723 304.7 723.2 303.1 724.1L302 724.7C299.8 725.9 297.7 727.3 295.7 728.9C293 731 290.1 733.6 287.3 736.5C284.7 739.3 281.8 742.7 278.2 747.1C276.9 748.7 275.6 750.3 274.3 751.9C269.5 757.9 265.3 763 262.6 767.4C260.8 770.2 259.5 772.6 258.7 774L258.2 775C257.4 776.5 257.2 777 256.7 777Z" fill="#348C93"/>
<path d="M272.2 753.4C272 753.4 271.9 753.3 271.7 753.2L271.4 753V752.7C271.4 752.5 271.3 752.2 272.3 750.9C273 750 274 749 275.1 748C278.2 745.3 282.4 743 286.7 741.6C291.3 740.1 295.6 739.6 299.6 739.3C305.7 738.9 305.7 739.1 305.8 739.9C305.9 740.8 305.9 740.8 299.8 741.5L299.4 741.6C296.3 742 291.9 742.6 287.5 744C283.6 745.3 279.6 747.4 276.6 749.7C275 750.9 273.9 752 273.4 752.6C273 753 272.6 753.4 272.2 753.4Z" fill="#348C93"/>
<path d="M273.8 751.5C273.7 751.5 273.5 751.5 273.4 751.4C272.6 751 272.9 750.3 273.9 748.5C274.7 746.9 275.9 744.6 277 741.8C278 738.9 278.6 736.2 278.9 734.5C279.3 732.6 279.4 731.9 280.3 732.1C281.1 732.2 281.2 732.9 280.9 735.8C280.6 738.3 280.1 740.5 279.3 742.6C278.5 744.7 277.5 746.7 276.2 748.9C274.9 750.7 274.3 751.5 273.8 751.5Z" fill="#348C93"/>
<path d="M256.7 741.7C256.6 741.7 256.5 741.7 256.4 741.6C255.6 741.3 255.8 740.6 256.1 739.7L257 737.1C257.5 735.6 258 734.3 258.6 733C258.8 732.6 258.9 732.2 259.1 731.8C259.6 730.6 260.2 729.2 261 727.7L262.5 724.7C262.9 724 263.2 723.3 263.6 722.6C263.8 722.2 264 721.9 264.2 721.5C265.2 719.7 266.4 717.8 267.7 715.9L268.5 714.7C272.1 709.6 276 704.8 280.1 700.5C284.3 696.2 288.9 692.2 293.9 688.4L295.1 687.6C297 686.3 298.8 685 300.6 683.9C301 683.7 301.3 683.5 301.7 683.2C302.4 682.8 303 682.4 303.7 682L306.6 680.4C308 679.6 309.4 679 310.6 678.4C311 678.2 311.4 678 311.8 677.8C313.1 677.2 314.4 676.6 315.8 676.1L318.3 675.1C319.3 674.7 319.9 674.5 320.2 675.3C320.5 676 319.9 676.3 318.9 676.8L316.4 677.9C315.4 678.3 314.1 678.9 312.6 679.7C312.2 679.9 311.7 680.1 311.3 680.4C310.1 681 308.9 681.6 307.6 682.4L304.7 684C304.1 684.4 303.5 684.8 302.8 685.2C302.4 685.4 302.1 685.7 301.7 685.9C300 686.9 298.3 688.1 296.6 689.4L295.3 690.3C290.4 694 285.9 698 281.9 702.1C277.9 706.3 274.1 711 270.5 716L269.6 717.3C268.4 719.1 267.2 720.9 266.3 722.6C266.1 723 265.8 723.4 265.6 723.8C265.2 724.5 264.8 725.1 264.5 725.7L263 728.6C262.3 729.9 261.7 731.2 261.2 732.4C261 732.9 260.8 733.3 260.6 733.7C259.9 735.2 259.3 736.6 258.9 737.6L257.9 740.1C257.5 741.1 257.2 741.7 256.7 741.7Z" fill="#348C93"/>
<path d="M281.9 701C281.8 701 282.2 699.5 284 697.9C285.7 696.3 288.8 694.8 292.3 694.7C295.9 694.6 298.9 695.6 301.1 696.4C303.2 697.2 304.5 697.9 304.4 698C304.4 698.1 303 697.6 300.9 697C298.8 696.3 295.7 695.5 292.4 695.6C289 695.7 286.1 697 284.5 698.4C282.6 699.8 282 701.1 281.9 701Z" fill="#348C93"/>
<path d="M276.1 707.7L275.8 707.5C275.1 707.1 275.4 706.4 275.8 705.6C276.4 704.4 277.4 702 277.8 699.1C278.2 696.1 277.7 693.6 277.4 692.3C277.2 691.4 277.1 690.7 277.8 690.4L278.1 690.3L278.4 690.5C279 690.8 279.5 692.4 279.8 693.2C280.3 695 280.5 697.3 280.2 699.4C280 701.5 279.3 703.7 278.3 705.3C277.9 706.1 277 707.5 276.3 707.7H276.1Z" fill="#348C93"/>
<path d="M215.1 784.8C216.4 807.8 223.3 831.1 234 854.8H280.3C290.5 831.4 296.9 808.1 298 784.8H215.1Z" fill="#FF5F4A"/>
<path d="M301.1 784.8H210.7V796.7H301.1V784.8Z" fill="#CE4949"/>
<g opacity="0.5">
<path d="M795.4 611.8L796.6 608.3C797.9 604.5 801.5 602 805.5 602H846.1C851.3 602 855.6 606.2 855.6 611.5V691.4C855.6 696.6 851.4 700.9 846.1 700.9H733.6C728.4 700.9 724.1 696.7 724.1 691.4V627.6C724.1 622.4 728.3 618.1 733.6 618.1H786.5C790.5 618.1 794.1 615.5 795.4 611.8Z" fill="#EA9036"/>
<path d="M724.1 689.8V691.3C724.1 696.5 728.3 700.8 733.6 700.8H847.7C852.9 700.8 858 697 859.1 692.3L875.8 620.4C876.9 615.7 873.5 611.9 868.3 611.9H827.7C823.7 611.9 819.6 614.2 817.5 617.6L815.6 620.7C813.5 624.1 809.4 626.4 805.4 626.4H752.5C747.3 626.4 742.2 630.2 741.1 634.9L728.2 690.3C727.9 691.4 726.8 692 725.7 691.7C724.8 691.5 724.1 690.7 724.1 689.8Z" fill="#FFB45A"/>
<path d="M807 675.3L813.8 669.9L796.5 646.5L789.7 651.9L807 675.3Z" fill="#EA9036"/>
<path d="M818.5 651.9L814.5 646.5L785 669.9L789 675.3L818.5 651.9Z" fill="#EA9036"/>
</g>
</svg>
