<svg width="48" height="48" viewBox="0 0 48 48" fill="none" xmlns="http://www.w3.org/2000/svg">
<g filter="url(#filter0_b_962_1415)">
<circle cx="24" cy="24" r="24" fill="#FFF5D0"/>
</g>
<path d="M34 19.7143C34 20.5032 33.3791 21.1429 32.6133 21.1429C32.6047 21.1429 32.5975 21.1383 32.5889 21.1382L30.8375 31.0632C30.7412 31.6036 30.2836 32 29.7462 32H18.285C17.749 32 17.2893 31.605 17.1936 31.0618L15.4425 21.1393C15.4339 21.1393 15.4266 21.1429 15.3867 21.1429C14.6209 21.1429 14 20.5032 14 19.7143C14 18.9254 14.6521 18.2857 15.3867 18.2857C16.1213 18.2857 16.7734 18.9254 16.7734 19.7143C16.7734 20.0356 16.6514 20.3175 16.4775 20.5561L19.5848 23.1168C20.1363 23.5714 20.9542 23.3862 21.27 22.7354L23.2669 18.6211C22.875 18.3693 22.5977 17.9407 22.5977 17.4286C22.5977 16.6396 23.2494 16 24.0156 16C24.7818 16 25.3711 16.6396 25.3711 17.4286C25.3711 17.9407 25.0951 18.3693 24.702 18.6214L26.6989 22.7357C27.0148 23.3864 27.8329 23.5714 28.3841 23.1171L31.4914 20.5564C31.3479 20.3179 31.2266 20.0036 31.2266 19.7143C31.2266 18.925 31.8471 18.2857 32.6133 18.2857C33.3794 18.2857 34 18.925 34 19.7143Z" fill="#FF8A00"/>
<defs>
<filter id="filter0_b_962_1415" x="-50" y="-50" width="148" height="148" filterUnits="userSpaceOnUse" color-interpolation-filters="sRGB">
<feFlood flood-opacity="0" result="BackgroundImageFix"/>
<feGaussianBlur in="BackgroundImageFix" stdDeviation="25"/>
<feComposite in2="SourceAlpha" operator="in" result="effect1_backgroundBlur_962_1415"/>
<feBlend mode="normal" in="SourceGraphic" in2="effect1_backgroundBlur_962_1415" result="shape"/>
</filter>
</defs>
</svg>
