<svg xmlns="http://www.w3.org/2000/svg" enable-background="new 0 0 2500 2500" viewBox="0 0 2500 2500" id="slow-page-loading"><g><circle cx="1250" cy="1250" r="884.59" fill="#eff3f8"></circle><g><polygon points="806.58 2216.4 776.42 2216.4 641.18 1531.92 671.34 1531.92"></polygon><polygon points="367.13 2228.83 397.29 2228.83 532.53 1544.34 502.37 1544.34"></polygon><g><path fill="#c7ecff" d="M2197.32,477.36l-4.75,168.13l-7.11,251.46l-5.48,193.64c-0.71,33.02-27.36,59.41-60.06,59.41h-825.44
				c-33.67,0-60.77-27.98-60.03-61.98l17.31-613.25c0.71-32.99,27.39-59.38,60.06-59.38h825.44
				C2170.95,415.38,2198.02,443.33,2197.32,477.36z"></path></g><g><g><path fill="#6ed3ea" d="M2192.57,645.49l-7.11,251.46c-1.98,0.09-3.95,0.15-5.96,0.15h-745.41
					c-69.65,0-126.14-56.49-126.14-126.14c0-34.85,14.12-66.37,36.98-89.23c22.79-22.82,54.34-36.92,89.17-36.92h745.41
					C2183.9,644.81,2188.26,645.05,2192.57,645.49z"></path></g></g><g><g><path fill="#6ed3ea" d="M1543.99,1033.85c-1.09-1.47-2.83-2.18-5.22-2.18c-0.8,0-1.65,0.12-2.65,0.35
					c-15.27,4.45-27.51,6.75-36.77,6.87c3.27-14.04,5.43-23.88,6.52-29.55l4.66-25.03c2-11,2.98-17.28,2.98-18.78
					c0-2-0.65-3.63-1.92-4.89c-1.3-1.24-2.98-1.86-5.07-1.86c-2.39,0-4.48,0.8-6.28,2.45c-1.8,1.65-2.86,3.51-3.16,5.57
					c-3.42,21.76-6.9,40.69-10.47,56.82l-4.1,18.43c-0.18,1.12-0.24,2.12-0.24,3.07c0,6.43,4.16,9.64,12.5,9.64
					c6.9,0,15.39-0.91,25.54-2.74c10.11-1.83,16.87-3.66,20.26-5.51c3.39-1.86,5.07-4.57,5.07-8.14
					C1545.64,1036.8,1545.11,1035.3,1543.99,1033.85z"></path></g><g><path fill="#6ed3ea" d="M1604.64,995.05c-3.66-4.36-8.7-6.55-15.13-6.55c-11.15,0-20.29,4.25-27.39,12.74
					c-7.11,8.49-10.67,17.63-10.67,27.42c0,6.99,2.18,12.74,6.52,17.31c4.36,4.57,10.03,6.84,16.98,6.84
					c10.03,0,18.4-4.16,25.12-12.5c6.72-8.34,10.05-17.66,10.05-27.98C1610.13,1005.16,1608.3,999.41,1604.64,995.05z
					 M1589.52,1030.87c-3.01,4.27-7.05,6.43-12.15,6.43c-3.07,0-5.4-1-7.02-3.01c-1.62-1.98-2.45-4.66-2.45-7.96
					c0-4.9,1.74-9.85,5.22-14.83c3.51-5.01,7.81-7.52,13-7.52c5.28,0,7.93,3.45,7.93,10.35
					C1594.06,1021.09,1592.55,1026.57,1589.52,1030.87z"></path></g><g><path fill="#6ed3ea" d="M1671.46,1003.78c1.27-1.39,1.89-2.95,1.89-4.72c0-2.86-2.36-5.4-7.08-7.67
					c-4.72-2.24-8.99-3.36-12.83-3.36c-10.47,0-19.99,3.95-28.6,11.88c-8.64,7.93-12.94,18.07-12.94,30.4
					c0,14.83,8.08,22.26,24.21,22.26c3.83,0,9.61-1.77,17.34-5.28c3.36,3.95,5.9,5.93,7.58,5.93c2.56,0,4.75-0.86,6.52-2.6
					c1.77-1.71,2.62-3.33,2.62-4.81c0-0.71-0.44-2.59-1.33-5.63l-1.77-5.78c-0.24-0.68-0.35-1.92-0.35-3.63
					c0-2.98,0.44-7.43,1.39-13.39C1669.01,1011.44,1670.13,1006.9,1671.46,1003.78z M1651.38,1033.85
					c-4.28,3.18-8.88,4.81-13.8,4.81c-6.07,0-9.11-3.48-9.11-10.41c0-7.64,2.48-13.92,7.46-18.81c4.98-4.92,10.38-7.37,16.22-7.37
					c1.06,0,2.18,0.35,3.33,1.12C1653.18,1008.82,1651.82,1019.02,1651.38,1033.85z"></path></g><g><path fill="#6ed3ea" d="M1748.59,955.77c-4.51,0-7.4,2.12-8.67,6.4c-1.27,4.28-3.39,13.62-6.37,28.07
					c-3.01-2.45-7.43-3.69-13.21-3.69c-11.44,0-20.67,4.25-27.72,12.77c-7.02,8.52-10.53,17.9-10.53,28.1
					c0,6.81,2.33,12.62,6.99,17.4c4.66,4.78,11.09,7.17,19.31,7.17c6.25,0,12.21-1.59,17.93-4.81c1,2.65,3.01,3.98,5.93,3.98
					c2.03,0,3.89-0.65,5.54-2.01c1.68-1.33,2.65-2.54,2.98-3.63c0.32-1.09,0.47-2.6,0.47-4.45c0-3.15,0.65-9.38,1.92-18.72
					c1.27-9.35,3.45-20.52,6.55-33.5c3.69-15.75,5.51-24.68,5.51-26.74C1755.23,957.9,1753.02,955.77,1748.59,955.77z
					 M1726.1,1030.31c-5.04,4.42-10.14,6.63-15.27,6.63c-3.72,0-6.87-1.24-9.49-3.72c-2.59-2.51-3.89-5.57-3.89-9.26
					c0-5.04,1.65-10.06,4.95-15.04c3.3-4.98,8.61-7.46,15.89-7.46c5.69,0,9.41,2.45,11.23,7.34
					C1727.22,1021.76,1726.1,1028.93,1726.1,1030.31z"></path></g><g><path fill="#6ed3ea" d="M1785.42,963.56c-1.56-1.44-3.45-2.15-5.69-2.15c-2.65,0-5.1,0.97-7.34,2.95
					c-2.24,1.95-3.36,4.28-3.36,6.99c0,2.03,0.77,3.77,2.27,5.22c1.5,1.44,3.39,2.18,5.66,2.18c2.8,0,5.28-1,7.49-3.04
					c2.21-2.01,3.33-4.34,3.33-6.96C1787.78,966.71,1786.99,964.97,1785.42,963.56z M1778.7,989.53c-1.27-1.21-2.92-1.8-4.95-1.8
					c-2.33,0-4.39,0.77-6.22,2.3c-1.8,1.56-2.86,3.42-3.18,5.57c-0.38,3.04-1.27,7.46-2.65,13.21c-1.77,7.78-3.15,15.72-4.22,23.79
					l-1.65,11.97c0,1.92,0.65,3.51,1.95,4.72c1.3,1.24,3.01,1.86,5.16,1.86c2.18,0,4.16-0.68,5.9-2.06c1.74-1.36,2.86-3.21,3.3-5.57
					c0.44-2.33,1.12-6.99,2-13.98c0.86-6.96,2.18-14.18,3.89-21.67c1.74-7.49,2.59-12,2.59-13.56
					C1780.62,992.34,1779.97,990.77,1778.7,989.53z"></path></g><g><path fill="#6ed3ea" d="M1829.89,986.44c-6.31,0-12.77,2.86-19.37,8.64v-0.71c0.59-6.1-1.68-9.17-6.75-9.17
					c-2.39,0-4.48,0.74-6.28,2.21c-1.77,1.47-2.83,3.18-3.16,5.13c-0.32,1.95-0.65,4.78-0.97,8.46c-0.32,3.33-1.53,9.35-3.63,18.02
					c-2.21,9.41-3.45,16.28-3.77,20.58l-0.47,6.34c0,1.83,0.65,3.33,1.98,4.51c1.3,1.18,2.98,1.77,5.01,1.77
					c2.24,0,4.16-0.59,5.72-1.8c1.59-1.18,2.62-2.45,3.1-3.74c0.47-1.33,0.77-3.69,0.94-7.08c0.47-7.11,1.77-12.94,3.89-17.54
					c2.15-4.6,5.31-9.11,9.49-13.5c4.19-4.42,8.14-6.61,11.85-6.61c1.36,0,2,0.97,2,2.92c0,0.91-0.27,2.45-0.83,4.66
					c-1.36,5.66-2.33,10.82-2.92,15.48c-0.59,4.63-0.88,11.91-0.88,21.82c0,4.48,2.33,6.75,6.99,6.75c2.42,0,4.51-0.83,6.25-2.45
					c1.74-1.62,2.74-3.51,3.04-5.69c0.27-2.18,0.41-5.93,0.41-11.26c0-4.54,0.47-9.73,1.44-15.6l0.71-4.25c0.68-4.16,1-7.78,1-10.85
					C1844.69,992.1,1839.77,986.44,1829.89,986.44z"></path></g><g><path fill="#6ed3ea" d="M1905.61,994.61c-2.71-3.6-7.75-5.42-15.16-5.42c-13.42,0-24,4.3-31.73,12.91
					c-7.7,8.58-11.56,18.16-11.56,28.69c0,6.22,1.98,11.38,5.96,15.45c3.98,4.07,9.52,6.1,16.66,6.1c6.07,0,11.35-2.03,15.86-6.1
					c-1.77,7.7-4.3,13.3-7.58,16.81c-3.3,3.48-7.78,5.22-13.45,5.22c-2.42,0-5.31-0.38-8.7-1.12c-3.15-0.62-5.63-0.94-7.46-0.94
					c-2.62,0-4.69,0.86-6.19,2.57c-1.53,1.71-2.27,3.6-2.27,5.72c0,5.28,7.11,7.93,21.32,7.93c11.35,0,20.17-2.89,26.42-8.67
					c6.28-5.78,10.7-15.86,13.3-30.28c2.09-10.64,4.63-20.35,7.58-29.13c2.15-6.43,3.21-10.73,3.21-12.98
					C1911.83,997.35,1909.77,995.11,1905.61,994.61z M1888.77,1024.74c-1.27,3.01-3.63,6.07-7.05,9.17
					c-3.42,3.07-6.6,4.63-9.55,4.63c-5.78,0-8.67-3.21-8.67-9.64c0-6.69,2.12-12.77,6.4-18.19c4.28-5.46,10.2-8.17,17.78-8.17
					c2.33,0,4.78,0.8,7.34,2.39C1892.13,1015.13,1890.04,1021.7,1888.77,1024.74z"></path></g><g><path fill="#6ed3ea" d="M1940.55,1041.37c-1.5-1.36-3.57-2.01-6.1-2.01c-2.77,0-5.31,0.94-7.58,2.8
					c-2.27,1.89-3.39,3.98-3.39,6.31c0,1.83,0.8,3.45,2.42,4.86s3.6,2.12,5.9,2.12c2.86,0,5.43-0.94,7.7-2.77
					c2.24-1.83,3.36-3.98,3.36-6.4C1942.85,1044.32,1942.08,1042.7,1940.55,1041.37z"></path></g><g><path fill="#6ed3ea" d="M1992.71,1041.37c-1.5-1.36-3.57-2.01-6.1-2.01c-2.77,0-5.31,0.94-7.58,2.8
					c-2.27,1.89-3.39,3.98-3.39,6.31c0,1.83,0.8,3.45,2.42,4.86c1.62,1.42,3.6,2.12,5.93,2.12c2.83,0,5.4-0.94,7.67-2.77
					c2.24-1.83,3.36-3.98,3.36-6.4C1995.01,1044.32,1994.24,1042.7,1992.71,1041.37z"></path></g><g><path fill="#6ed3ea" d="M2045.23,957.1c-1.21-1.39-2.86-2.09-4.98-2.09c-2.15,0-4.1,0.74-5.87,2.21c-1.77,1.47-2.8,3.48-3.13,6.02
					l-3.86,24.15c-2.33,13.53-3.92,23.68-4.84,30.43l-0.5,3.98c-0.41,2.42-0.59,3.83-0.59,4.25c0,1.59,0.56,2.98,1.71,4.13
					c1.15,1.15,2.77,1.74,4.81,1.74c2.27,0,4.22-0.71,5.84-2.12c1.62-1.42,2.59-3.13,2.89-5.1l9.88-62.33
					C2046.91,960.23,2046.46,958.48,2045.23,957.1z M2031.37,1039.13c-1.44-2.15-3.33-3.24-5.69-3.24c-2.24,0-4.3,0.83-6.19,2.45
					c-1.92,1.62-2.86,3.54-2.86,5.78c0,1.98,0.77,3.98,2.33,6.02c1.53,2.06,3.36,3.1,5.48,3.1c2.15,0,4.22-0.83,6.16-2.48
					c1.98-1.65,2.95-3.51,2.95-5.57C2033.55,1043.29,2032.81,1041.28,2031.37,1039.13z"></path></g></g><g><path d="M2119.92,1152.94h-825.44c-1.63,0-2.95-1.32-2.95-2.95c0-1.63,1.32-2.95,2.95-2.95h825.44
				c30.83,0,56.45-25.35,57.11-56.52l17.34-613.25c0.05-1.6,1.36-2.87,2.95-2.87c0.03,0,0.05,0,0.08,0c1.63,0.05,2.91,1.4,2.87,3.03
				l-17.34,613.23C2182.2,1125,2153.94,1152.94,2119.92,1152.94z"></path></g><g><ellipse cx="2094.55" cy="489.08" fill="#fff" rx="21.4" ry="21.62"></ellipse></g><g><ellipse cx="2033.98" cy="489.08" fill="#fff" rx="21.4" ry="21.62"></ellipse></g><g><ellipse cx="1973.41" cy="489.08" fill="#fff" rx="21.4" ry="21.62"></ellipse></g><g><g><g><g><polygon fill="#ffb59c" points="909.3 1959.85 895.07 2077.9 789.97 2069.64 798.06 1946.43"></polygon></g><g><g><g><path fill="#f95d5d" d="M1068.27,2237.19L770.7,2201.3c-27.14-22.76-2.99-52.4-2.09-53.49l0.03-0.02c0,0-0.2-3.06-0.41-8.06
									c-0.31-7.86-0.59-20.6-0.02-33.88c0.88-20.06,3.71-41.41,11.44-49.37c16.08-16.59,43.05,4.18,65.34,9.51
									c22.26,5.35,40.1-14.99,40.1-14.99s-0.02-0.03-0.04-0.06c-0.62-1.89-16.39-49.56,23.24-43.15
									c40.43,6.54,20.68,51.45,20.68,51.45c4.88,7.64,62.41,35.47,110.08,61.97c5.12,2.85,10.12,5.65,14.91,8.43
									c24.38,14.14,43.87,27.19,48.48,35.7c0,0,0,0,0,0.02c0.36,0.67,0.64,1.3,0.8,1.91
									C1116.31,2213.62,1068.27,2237.19,1068.27,2237.19z"></path></g><g><path fill="#ed3b3b" d="M1068.27,2237.19l-83.91-10.12c-15.36-6.62-25.07-16.27-24.84-30.11
									c1.08-63.39,77.01-41.35,87.84-49.64c5.51-4.21,6.72-11.5,6.59-17.66c24.38,14.14,43.87,27.19,48.48,35.7c0,0,0,0,0,0.02
									c0.36,0.67,0.64,1.3,0.8,1.91C1116.31,2213.62,1068.27,2237.19,1068.27,2237.19z"></path></g><g><path fill="#362c26" d="M1068.27,2237.19L770.7,2201.3c-27.14-22.76-2.99-52.4-2.09-53.49l0.03-0.02
									c34.74-21.96,107.81,31.87,107.81,31.87s155.74,28.37,192.31,26.48c35.98-1.83,33.75-39.55,33.67-40.75
									c0.36,0.67,0.64,1.3,0.8,1.91C1116.31,2213.62,1068.27,2237.19,1068.27,2237.19z"></path></g><g><path fill="#ffce33" d="M1009.02,2114.92c0,0-24.71,40.95-58.3,38.3c-33.61-2.65-53-14.01-96.89-27.57
									c-37.84-11.69-75.88,8.34-85.6,14.09c-0.31-7.86-0.59-20.6-0.02-33.88c13.69-6.77,34.28-13.49,60.28-11.73
									c49.69,3.35,55.88,22.63,97.76,25.68c41.87,3.08,50.84-17.01,50.84-17.01L1009.02,2114.92z"></path></g></g></g></g><g><g><path fill="#ed3b3b" d="M1039.04,2121.24c-24.96,10.88-105.22-27.8-127.91-44.27c-24.11-17.45-26.04-25.95-26.04-25.95
							s-0.02-0.03-0.04-0.06c-0.62-1.89-16.39-49.56,23.24-43.15c40.43,6.54,20.68,51.45,20.68,51.45
							C933.83,2066.9,991.37,2094.73,1039.04,2121.24z"></path></g><g><path fill="#362c26" d="M949.52,2070.33l-8.24,6.79c-2,1.64-4.93,1.34-6.56-0.67c-1.62-2.01-1.32-4.98,0.68-6.62l8.24-6.79
							c2-1.64,4.93-1.34,6.56,0.67C951.81,2065.72,951.51,2068.68,949.52,2070.33z"></path></g><g><path fill="#362c26" d="M966.51,2081.01l-8.24,6.79c-2,1.64-4.93,1.34-6.56-0.67c-1.62-2.01-1.32-4.98,0.68-6.62l8.24-6.79
							c2-1.64,4.93-1.34,6.56,0.67C968.81,2076.4,968.5,2079.37,966.51,2081.01z"></path></g><g><path fill="#362c26" d="M983.5,2091.69l-8.24,6.79c-2,1.64-4.93,1.34-6.56-0.67c-1.62-2.01-1.32-4.98,0.68-6.62l8.24-6.79
							c2-1.64,4.93-1.34,6.56,0.67C985.8,2087.08,985.5,2090.05,983.5,2091.69z"></path></g><g><path fill="#362c26" d="M1000.49,2102.37l-8.24,6.79c-2,1.64-4.93,1.34-6.56-0.67c-1.62-2.01-1.32-4.98,0.68-6.62l8.24-6.79
							c2-1.64,4.93-1.34,6.56,0.67C1002.79,2097.76,1002.49,2100.73,1000.49,2102.37z"></path></g></g></g><g><g><path fill="#564dc6" d="M1087.18,1563.6c-19.8,117.43-65.3,268.23-87.24,298.2c0,0,9.88,49.42-23.29,86.83
						c0,0-5.82,56.14-28.07,64.63c-8.27,3.14-59.22,6.91-84.55,9.07c-42.86,3.69-95.62,2.77-108.93-13.54
						c-21.18-25.96,10.05-51.36,10.05-51.36s1.07-46.61,12.72-68.84c11.65-22.25,34.09-56.23,34.09-56.23
						c-6.37-15.03-0.55-38.26,5.52-53.39c6.04-15.14,14.46-29.49,17.95-45.41c4.04-18.5,1.13-37.86,4.19-56.53
						c4.62-28.4,5.15-48.09,20.18-72.63c1.22-1.99,2.42-4.01,3.62-6.06c11.71-20.13,21.24-42.64,19.76-65.22
						c-0.22-3.32-0.68-6.63-1.4-9.95l0.7-7.18l-255.5-91.26l4.91-107.81c30.16,3.1,443.56,44.1,461.97,122.62
						C1099.79,1464.86,1096.08,1510.88,1087.18,1563.6z"></path></g><g><path fill="#2e2780" d="M999.94,1861.8c0,0,9.88,49.42-23.29,86.83c0,0-5.82,56.14-28.07,64.63c-8.27,3.14-59.22,6.91-84.55,9.07
						c3.73-5.65,38.22-10.6,44.04-13.74c14.18-7.68,31.28-10.4,43.23-21.22c11.08-10.03,15.7-25.15,19.85-39.5
						c7.61-26.26,15.2-52.52,22.79-78.78c7.79-26.89,15.64-54.18,16.16-82.16c0.94-48.49-49.69-95.6-81.43-132.26
						c-18.89-21.83-41.2-40.29-65.26-56.34c11.71-20.13,21.24-42.64,19.76-65.22c9.92-4.56,20.09-8.55,30.58-11.65
						c28.31-8.4,88.43-10.06,116.13,0.17c22.62,8.35,41.22,23.75,57.3,41.96C1067.38,1681.03,1021.88,1831.83,999.94,1861.8z"></path></g><g><path d="M836.22,2027.01c-38.11,0-73.35-4.05-83.4-16.36c-6.1-7.47-8.75-15.63-7.87-24.26c1.55-15.21,13.61-27.06,17.3-30.36
						c0.27-7.93,2.14-48.09,13.01-68.83c10.31-19.68,29.19-48.77,33.4-55.2c-6.89-18.84,2.86-46.08,6.08-54.15
						c0.6-1.51,2.32-2.25,3.83-1.64c1.51,0.6,2.25,2.32,1.64,3.83c-6.39,15.98-11.2,37.81-5.54,51.15c0.39,0.91,0.29,1.95-0.25,2.78
						c-0.22,0.34-22.49,34.12-33.94,55.97c-11.19,21.37-12.36,67.08-12.37,67.54c-0.02,0.86-0.42,1.67-1.09,2.22
						c-1.18,0.96-28.69,23.89-9.64,47.22c19.83,24.29,168.64,11.76,190.14,3.57c1.52-0.58,3.23,0.18,3.81,1.71
						c0.58,1.52-0.18,3.23-1.7,3.81C937.99,2020.44,884.78,2027.01,836.22,2027.01z"></path></g><g><path d="M817.48,1781.9c-0.37,0-0.73-0.07-1.09-0.21c-1.51-0.6-2.25-2.32-1.64-3.83c2-5,4.27-9.96,6.47-14.76
						c4.45-9.71,9.06-19.75,11.34-30.18c2.11-9.66,2.27-19.9,2.43-29.8c0.14-8.73,0.28-17.75,1.72-26.59
						c0.79-4.83,1.46-9.4,2.1-13.79c3.19-21.81,5.71-39.03,18.49-59.89c0.85-1.39,2.66-1.83,4.05-0.97
						c1.39,0.85,1.83,2.67,0.97,4.05c-12.15,19.83-14.59,36.53-17.68,57.66c-0.65,4.42-1.32,9.03-2.11,13.89
						c-1.37,8.41-1.51,17.21-1.65,25.73c-0.16,10.19-0.33,20.72-2.57,30.96c-2.41,11.05-7.15,21.38-11.74,31.38
						c-2.17,4.73-4.41,9.62-6.36,14.49C819.76,1781.2,818.65,1781.9,817.48,1781.9z"></path></g><g><path d="M791.62,1969.43c-10.08,0-20.13-3.16-28.35-9.02c-1.32-0.95-1.63-2.79-0.69-4.11c0.94-1.32,2.79-1.63,4.11-0.69
						c8.79,6.28,19.98,9.03,30.69,7.53c1.61-0.22,3.1,0.9,3.33,2.51s-0.9,3.1-2.51,3.33
						C796.02,1969.28,793.82,1969.43,791.62,1969.43z"></path></g><g><path d="M832.55,1843.16c-8.33,0-16.65-3.49-22.17-9.92c-1.06-1.24-0.92-3.1,0.32-4.16c1.24-1.06,3.1-0.92,4.16,0.32
						c6.63,7.73,18.9,10.11,27.95,5.43c1.44-0.75,3.23-0.19,3.97,1.26c0.75,1.45,0.18,3.23-1.26,3.97
						C841.48,1842.15,837.01,1843.16,832.55,1843.16z"></path></g><g><path d="M866.01,1751.73c-11.78,0-23.32-4.52-31.96-12.58c-1.19-1.11-1.26-2.98-0.14-4.17c1.11-1.19,2.97-1.25,4.17-0.14
						c7.88,7.35,19.04,11.44,29.77,10.95c1.57-0.08,3.01,1.18,3.08,2.81c0.07,1.63-1.18,3.01-2.81,3.08
						C867.41,1751.72,866.71,1751.73,866.01,1751.73z"></path></g><g><path d="M992.82,1868.07c-9.23,0-18.45-3.26-25.55-9.19c-1.25-1.04-1.41-2.9-0.37-4.15c1.05-1.25,2.9-1.42,4.16-0.37
						c7.36,6.15,17.4,8.92,26.88,7.42c1.62-0.26,3.12,0.84,3.37,2.45c0.26,1.61-0.84,3.12-2.45,3.38
						C996.87,1867.92,994.85,1868.07,992.82,1868.07z"></path></g><g><path d="M975.58,1951.49c-0.03,0-0.05,0-0.08,0c-13.61-0.36-27.3-3.63-39.6-9.46c-1.47-0.7-2.1-2.45-1.41-3.93
						c0.7-1.47,2.46-2.1,3.93-1.4c11.57,5.47,24.44,8.55,37.24,8.89c1.63,0.04,2.91,1.4,2.87,3.03
						C978.48,1950.22,977.17,1951.49,975.58,1951.49z"></path></g></g><g><g><path fill="#564dc6" d="M632.35,1286.38l-0.05,1.02c-1.35-0.14-2.03-0.21-2.03-0.21L632.35,1286.38z"></path></g><g><g><g><polygon fill="#ffb59c" points="1272.41 1886.59 1312.68 1998.47 1215.06 2038.26 1166.98 1924.53"></polygon></g><g><g><g><path fill="#f95d5d" d="M1538.96,2063.05l-282.02,101.51c-34.47-8.16-26.2-45.48-25.88-46.86l0.01-0.03
										c0,0-1.55-2.64-3.99-7.02c-3.81-6.89-9.78-18.14-15.22-30.26c-8.22-18.32-15.27-38.67-11.93-49.25
										c6.92-22.05,40.35-15.59,62.66-20.83c22.29-5.21,29.11-31.4,29.11-31.4s-0.03-0.02-0.07-0.03
										c-1.4-1.41-36.89-36.93,1.39-48.99c39.06-12.31,41.57,36.7,41.57,36.7c7.79,4.64,71.69,3.68,126.19,5.97
										c5.85,0.24,11.58,0.51,17.11,0.84c28.13,1.69,51.4,4.61,59.35,10.14c0,0,0,0,0.01,0.02c0.62,0.44,1.15,0.87,1.57,1.35
										C1571.31,2020.43,1538.96,2063.05,1538.96,2063.05z"></path></g><g><path fill="#ed3b3b" d="M1538.96,2063.05l-79.53,28.62c-16.7,0.98-29.71-3.28-35.71-15.75
										c-27.49-57.13,50.26-71.52,56.21-83.78c3.03-6.23,0.84-13.29-2.04-18.74c28.13,1.69,51.4,4.61,59.35,10.14
										c0,0,0,0,0.01,0.02c0.62,0.44,1.15,0.87,1.57,1.35C1571.31,2020.43,1538.96,2063.05,1538.96,2063.05z"></path></g><g><path fill="#362c26" d="M1538.96,2063.05l-282.02,101.51c-34.47-8.16-26.2-45.48-25.88-46.86l0.01-0.03
										c21.18-35.22,110.65-19.92,110.65-19.92s151.9-44.55,183.74-62.66c31.33-17.78,12.41-50.49,11.79-51.53
										c0.62,0.44,1.15,0.87,1.57,1.35C1571.31,2020.43,1538.96,2063.05,1538.96,2063.05z"></path></g><g><path fill="#ffce33" d="M1431.12,1980.39c0,0-3.7,47.69-34.91,60.39c-31.23,12.72-53.65,11.27-98.96,18.85
										c-39.06,6.54-64.06,41.52-70.17,51.02c-3.81-6.89-9.78-18.14-15.22-30.26c9.2-12.2,24.58-27.44,48.6-37.54
										c45.91-19.31,60.09-4.86,98.88-20.93c38.8-16.04,37.79-38.02,37.79-38.02L1431.12,1980.39z"></path></g></g></g></g><g><g><path fill="#ed3b3b" d="M1460.78,1972.56c-17.42,20.93-106.51,22.39-134.18,17.86c-29.38-4.77-34.91-11.5-34.91-11.5
								s-0.03-0.02-0.07-0.03c-1.4-1.41-36.89-36.93,1.39-48.99c39.06-12.31,41.57,36.7,41.57,36.7
								C1342.38,1971.23,1406.29,1970.27,1460.78,1972.56z"></path></g><g><path fill="#362c26" d="M1357.93,1967.26l-4.32,9.77c-1.05,2.36-3.81,3.42-6.16,2.35c-2.35-1.07-3.42-3.86-2.37-6.22l4.32-9.77
								c1.05-2.36,3.81-3.42,6.16-2.35C1357.92,1962.1,1358.98,1964.89,1357.93,1967.26z"></path></g><g><path fill="#362c26" d="M1377.91,1969.17l-4.32,9.77c-1.05,2.36-3.81,3.42-6.16,2.35c-2.35-1.07-3.42-3.86-2.37-6.22l4.32-9.77
								c1.05-2.36,3.81-3.42,6.16-2.35C1377.9,1964.02,1378.96,1966.81,1377.91,1969.17z"></path></g><g><path fill="#362c26" d="M1397.89,1971.09l-4.32,9.77c-1.05,2.36-3.81,3.42-6.16,2.35c-2.35-1.07-3.42-3.86-2.37-6.22l4.32-9.77
								c1.05-2.36,3.8-3.42,6.16-2.35C1397.88,1965.94,1398.94,1968.73,1397.89,1971.09z"></path></g><g><path fill="#362c26" d="M1417.87,1973.01l-4.32,9.77c-1.05,2.36-3.81,3.42-6.16,2.35c-2.35-1.07-3.42-3.86-2.37-6.22l4.32-9.77
								c1.05-2.36,3.81-3.42,6.16-2.35C1417.86,1967.85,1418.92,1970.64,1417.87,1973.01z"></path></g></g></g><g><path fill="#564dc6" d="M1164.62,1984.24c-35.57-8.03-57.38-121.66-57.38-121.66c-78.03-56.22-73.25-130.57-73.25-130.57
						c-40.17-18.34-100.98-156.06-100.98-156.06s-280.01,48.21-370.66,12.62c-40.74-16-69.67-76.24-89.19-137.75
						c-23.87-75.34-33.6-152.57-33.6-152.57s148.17,2.6,299.15,9.74c132.17,6.24,266.5,15.95,305.61,30.41
						c83.77,31.01,201.96,329.36,201.96,329.36c68.86,52.79,39.59,115.98,39.59,115.98c22.97,12.62,50.55,75.74,54,98.69
						C1343.31,1905.37,1200.19,1992.27,1164.62,1984.24z"></path></g><g><path fill="#2e2780" d="M738.72,1307.98c-5.41,14.46-15.05,27.58-26.96,37.5c-20.39,17.04-46.58,25.74-72.83,29.75
						c-15.12,2.32-30.74,3.26-44.76,9.41c-13.71,6.03-24.81,16.52-36.63,25.71c-18.79,14.63-39.89,26.23-62.29,34.24
						c-7.11,2.55-14.56,4.7-22.07,6.22c-23.87-75.34-33.6-152.57-33.6-152.57S587.73,1300.85,738.72,1307.98z"></path></g><g><path d="M1246.29,1670.7c-1.17,0-2.28-0.71-2.74-1.86c-1.18-2.97-118.66-297.49-200.25-327.67c-1.53-0.57-2.31-2.26-1.74-3.79
						c0.56-1.53,2.27-2.31,3.79-1.74c84.04,31.08,198.84,318.79,203.69,331.03c0.6,1.51-0.14,3.23-1.66,3.83
						C1247.02,1670.64,1246.65,1670.7,1246.29,1670.7z"></path></g><g><path d="M1169.6,1987.66c-2.08,0-3.96-0.18-5.63-0.56c-35.46-8.01-56.86-110.06-59.4-122.81
						c-70.4-51.3-73.61-118.12-73.57-130.47c-38.34-20.32-91.76-136.78-99.76-154.59c-28.67,4.83-282.89,46.25-369.97,12.08
						c-1.52-0.59-2.26-2.31-1.67-3.82c0.59-1.52,2.3-2.26,3.82-1.67c88.86,34.87,366.29-12.3,369.08-12.78
						c1.36-0.23,2.65,0.48,3.2,1.71c0.6,1.37,60.82,136.89,99.51,154.58c1.11,0.51,1.79,1.65,1.72,2.87
						c-0.05,0.73-3.65,73.45,72.04,127.99c0.61,0.44,1.03,1.1,1.17,1.84c5.97,31.07,27.5,113.08,55.13,119.32
						c27.17,6.14,123.66-47.99,158.69-80.54c12.77-11.87,13.17-16.74,12.99-17.96c-0.24-1.61,0.87-3.11,2.48-3.35
						c1.66-0.24,3.12,0.87,3.35,2.48c0.83,5.55-4.01,13.12-14.81,23.15C1293.97,1936.74,1204.47,1987.66,1169.6,1987.66z"></path></g><g><g><path fill="#ffb59c" d="M977.63,907.37L901.96,857l18.96-93.69c2.22-17.15,1.64-49.19,14.43-48.88
							c12.78,0.18,20.45,32.84,20.45,32.84s21.49-72.41,44.91-68.62c21.62,3.4-0.82,66.94-6.59,79.05
							c6.1-10.81,24.82-54.33,41.51-53.37c17.65,0.83-10.78,61.44-13.29,65.87c2.28-2.53,18.39-19.08,29.94-8.84
							C1073.25,780.16,977.63,907.37,977.63,907.37z"></path></g><g><path d="M976.79,795.82c-0.54,0-1.09-0.15-1.58-0.46c-1.37-0.87-1.78-2.7-0.9-4.07c6.91-10.86,12.65-22.48,17.09-34.56
							c0.56-1.53,2.27-2.31,3.78-1.75c1.53,0.56,2.31,2.26,1.75,3.78c-4.58,12.47-10.52,24.48-17.65,35.69
							C978.72,795.33,977.76,795.82,976.79,795.82z"></path></g><g><path d="M1012.06,797.42c-0.41,0-0.83-0.09-1.22-0.27c-1.48-0.68-2.13-2.43-1.45-3.91l8.18-17.91
							c1.16-2.55,2.37-5.18,4.14-7.61c0.96-1.31,2.8-1.6,4.12-0.64c1.32,0.96,1.61,2.8,0.65,4.12c-1.42,1.95-2.5,4.3-3.54,6.58
							l-8.18,17.91C1014.25,796.78,1013.18,797.42,1012.06,797.42z"></path></g><g><path d="M951.46,781.05c-0.25,0-0.5-0.03-0.75-0.1c-1.58-0.41-2.52-2.02-2.11-3.6c2.62-10.08,4.22-20.46,4.75-30.85
							c0.09-1.63,1.48-2.86,3.1-2.79c1.63,0.08,2.88,1.47,2.79,3.1c-0.56,10.79-2.22,21.57-4.94,32.03
							C953.97,780.17,952.77,781.05,951.46,781.05z"></path></g></g><g><path fill="#ffce33" d="M1000.4,923.58c0,0,10.07,36.67-15.98,73.67c0,0-42.71,144.42-98.94,173.26
						c-26.25,13.46-86.01,6.55-145.31-6.58c-41.13-9.08-82.06-21.14-111.39-31.45c-19.08-6.71-33.26-12.65-39.46-16.56
						c-10.43-6.56,30.82-10.79,21.63-21.61c-53.01-62.46-13.1-167.85-13.1-167.85s108.69,20.23,191.89,76.16
						c0,0,34.07-7.55,45.52,19.39c0,0,34.36-77.39,35.16-99.35c0.83-21.97,0.21-31.47,12.27-43.02c0,0,3.1-39.43,19.17-45.25
						c16.04-5.85,106.82,34.53,108.89,51.88C1012.84,903.63,1010.8,921.63,1000.4,923.58z"></path></g><g><path fill="#f7a731" d="M773.86,1170.64c-36.43-42.97-100.22-142.24-100.22-142.24s-46.68,66.67-46.84,69.55
						c-0.08,1.48,0.94,18.4,1.99,34.54c0.91,0.32,1.88,0.67,2.91,1.02C688.8,1151.45,739.38,1165.66,773.86,1170.64z"></path></g><g><path fill="#f7a731" d="M1000.4,923.58c0,0,10.07,36.67-15.98,73.67c0,0-42.71,144.42-98.94,173.26c-0.13,0.07-0.27,0.13-0.4,0.2
						c53.3-35.73,86.78-191.38,86.78-191.38c26.05-37.02,16-73.67,16-73.67c9.57-1.79,12.07-17.18,10.76-33.14
						c7.08,5.2,11.67,10.03,12.12,13.77C1012.84,903.63,1010.8,921.63,1000.4,923.58z"></path></g><g><path d="M885.47,1173.47c-1.07,0-2.1-0.59-2.63-1.6c-0.74-1.45-0.17-3.23,1.28-3.97c54.47-27.95,97.05-170.05,97.47-171.49
						c0.09-0.31,0.23-0.6,0.42-0.86c24.88-35.35,15.65-70.84,15.56-71.19c-0.22-0.79-0.09-1.64,0.35-2.34
						c0.44-0.7,1.15-1.18,1.95-1.33c8.17-1.53,9.88-18.2,7.95-34.04c-0.17-1.4-2.1-6.8-20-17.8c-29.29-18-75.35-35.18-84.96-31.68
						c-1.52,0.56-3.22-0.23-3.78-1.76c-0.56-1.53,0.23-3.22,1.76-3.78c13.51-4.91,63.95,16.14,90.07,32.19
						c21.71,13.35,22.51,19.94,22.77,22.11c0.99,8.18,3.01,33.85-9.8,39.64c1.83,9.39,5.64,40.84-16.77,72.98
						c-3.17,10.61-44.64,146.03-100.29,174.6C886.39,1173.36,885.93,1173.47,885.47,1173.47z"></path></g><g><path d="M837.06,1048.3c-0.22,0-0.44-0.02-0.66-0.08c-1.59-0.36-2.58-1.95-2.21-3.53c3.46-15.08-1.1-20.66-1.15-20.72
						c-1.04-1.22-0.93-3.07,0.26-4.14c1.19-1.07,3-1.01,4.09,0.16c0.7,0.75,6.72,7.83,2.54,26.01
						C839.62,1047.37,838.4,1048.3,837.06,1048.3z"></path></g><g><path d="M906.9,897.38c-1.07,0-2.1-0.58-2.62-1.6c-5.83-11.3-21.75-13.2-21.91-13.21c-1.62-0.18-2.78-1.64-2.61-3.25
						c0.18-1.62,1.64-2.79,3.25-2.61c0.78,0.08,19.2,2.23,26.51,16.37c0.75,1.45,0.18,3.23-1.27,3.97
						C907.82,897.28,907.35,897.38,906.9,897.38z"></path></g><g><path d="M1000.41,926.53c-0.27,0-0.55-0.04-0.82-0.12c-0.15-0.04-15.07-4.36-26.39-5.84c-1.62-0.21-2.75-1.69-2.54-3.3
						c0.21-1.61,1.66-2.76,3.3-2.54c11.78,1.53,26.65,5.84,27.28,6.02c1.56,0.46,2.46,2.09,2.01,3.66
						C1002.87,925.69,1001.69,926.53,1000.41,926.53z"></path></g><g><path d="M984.24,998.72c-0.34,0-0.69-0.06-1.03-0.19c-0.18-0.07-18.4-6.83-25.54-8.29c-1.6-0.33-2.63-1.88-2.3-3.48
						c0.33-1.6,1.89-2.63,3.48-2.3c7.58,1.55,25.65,8.25,26.41,8.54c1.53,0.57,2.3,2.26,1.74,3.79
						C986.56,997.98,985.43,998.72,984.24,998.72z"></path></g><g><path fill="#ffce33" d="M516.06,920.65c-34.26,1.13-93.33-0.72-135.41,21.47c-42.08,22.19-2.3,288.42,9.18,320.55
						s32.35,131.2,70.96,145.93c43.61,16.64,124.13-31.56,124.89-56.42c0,0,98.8-9.38,97.27-39.59c0,0,62.98,9.54,64.51-25.66
						c1.53-35.19-82.6-317.65-130.03-350.16C586.36,915.46,541.71,919.81,516.06,920.65z"></path></g><g><path fill="#f7a731" d="M419.3,1050.45c14.09,18.1,20.46,42.02,17.24,64.73c-1.39,9.8-4.47,19.31-5.77,29.13
						c-1.3,9.82-0.62,20.41,4.87,28.65c10.04,15.05,31.17,16.6,49.26,16.61c31.81,0.02,63.62,0.03,95.43,0.05
						c8.78,0,17.76,0.04,26.01,3.04c8.25,2.99,15.76,9.58,17.33,18.21c1.57,8.6-3.11,17.41-9.83,23
						c-6.72,5.59-15.22,8.52-23.6,11.01c-55.33,16.45-114.88,18.45-171.19,5.73c-16.81-3.8-33.82-9.14-47.03-20.2
						c-23.93-20.04-30.29-55.67-22.24-85.82s28.12-55.64,49.98-77.91"></path></g><g><path d="M481.42,1415c-7.74,0-15.08-1.12-21.68-3.64c-32.44-12.38-51.97-78.67-64.89-122.54c-3-10.18-5.59-18.97-7.79-25.16
						c-0.55-1.53,0.25-3.22,1.79-3.77c1.52-0.55,3.22,0.25,3.77,1.78c2.27,6.35,4.88,15.21,7.9,25.47
						c11.83,40.15,31.62,107.36,61.33,118.69c25.96,9.9,66.31-4.59,92.81-22.26c16.81-11.2,27.84-23.57,28.08-31.5
						c0.05-1.49,1.19-2.7,2.67-2.84c26.7-2.54,95.74-14.04,94.6-36.51c-0.04-0.88,0.31-1.74,0.97-2.33
						c0.66-0.59,1.54-0.86,2.42-0.73c0.37,0.06,37.57,5.48,53.82-7.9c4.64-3.82,7.03-8.72,7.3-14.97c0.07-1.63,1.34-2.89,3.08-2.82
						c1.63,0.07,2.89,1.45,2.82,3.07c-0.35,7.91-3.52,14.4-9.45,19.27c-15.45,12.72-45.37,10.66-55.25,9.57
						c-4.55,27.69-80.45,37.19-97.38,38.97c-1.93,9.81-12.8,21.89-30.41,33.62C536.01,1403.1,506.6,1415,481.42,1415z"></path></g><g><path fill="#f95d5d" d="M406.74,1286.93c-4.19-24.02-26.71-46.97-50.95-44.34c-22.19,2.41-44.26,13.09-47.62,21.23
						c-6.89,16.64,60.65,301.13,131.39,326.48c99.26,35.57,343.12,16.07,343.12,16.07s-10.9-92.38-91.23-123.94
						c-80.33-31.56-230.08-46.64-259.35-111.89C418.12,1339.37,410.69,1309.56,406.74,1286.93z"></path></g><g><path fill="#ed3b3b" d="M782.67,1606.36c0,0-243.86,19.52-343.11-16.07c-70.75-25.33-138.29-309.84-131.39-326.47
						c1.32-3.19,5.51-6.76,11.44-10.07c12.45,74.06,69.78,279.45,129.41,300.81c82.78,29.66,266.09,21.01,324.7,17.32
						C780.95,1591.61,782.67,1606.36,782.67,1606.36z"></path></g><g><path d="M691.45,1485.38c-0.36,0-0.72-0.07-1.08-0.21c-23.78-9.34-53.5-17.18-84.96-25.48c-76.14-20.09-154.88-40.86-176-87.94
						c-11.81-26.32-20.41-54.69-25.58-84.31c-0.28-1.6,0.79-3.13,2.4-3.41c1.63-0.28,3.13,0.8,3.41,2.4
						c5.08,29.14,13.55,57.04,25.15,82.91c19.97,44.52,100.8,65.84,172.12,84.65c31.63,8.35,61.52,16.23,85.61,25.7
						c1.52,0.6,2.26,2.31,1.67,3.82C693.74,1484.67,692.62,1485.38,691.45,1485.38z"></path></g><g><path d="M638.66,1614.55c-71.53,0-152.56-4.44-200.1-21.47c-1.53-0.55-2.33-2.24-1.78-3.77c0.55-1.53,2.24-2.33,3.77-1.78
						c91.45,32.77,309.78,18.24,338.73,16.14c-2.78-16.08-19.34-91.16-88.91-118.49c-1.52-0.6-2.26-2.31-1.67-3.82
						c0.6-1.52,2.31-2.26,3.82-1.67c81.04,31.84,92.97,125.39,93.08,126.33c0.09,0.8-0.14,1.6-0.65,2.22
						c-0.51,0.62-1.25,1.01-2.04,1.07C781.64,1609.4,715.67,1614.55,638.66,1614.55z"></path></g></g><g><g><rect width="1348.39" height="76.29" x="239.88" y="1298.24" fill="#6a7999"></rect></g><g><polygon fill="#6a7999" points="1640.49 2232.59 1619.26 2232.59 1514.26 1321.54 1535.49 1321.54"></polygon></g><g><polygon fill="#6a7999" points="214.76 2232.59 235.99 2232.59 340.99 1321.54 319.76 1321.54"></polygon></g></g><g><g><path fill="#ffb59c" d="M834.96,1265.49c5.31,0.68,11.11,5.98,10.79,10.16c-0.9,12.49-16.45,17.91-40.86,10.69
						c0,0-89.6,30.56-141.29,30.79c-18.97,0.1-66.05-3.63-66.05-3.63l12.03-94.51l46.42,0.66c0,0,37.13-52.22,62.95-45.52
						l-6.84,29.82c0,0,108.15-35.67,115.98-17.64c7.38,16.99-47.98,34.23-54.33,36.14c6.64-1.48,69.57-15.5,73.87-3.98
						c4.51,12.17-26.32,26.3-26.32,26.3s31.76-2.77,28.68,10.81C848.83,1260.79,842.43,1263.77,834.96,1265.49z"></path></g><g><path d="M812.23,1204.35c-0.33,0-0.66-0.05-0.98-0.17c-3.67-1.29-6.87-4-8.78-7.41c-1.9-3.41-2.53-7.57-1.72-11.4
						c0.34-1.59,1.91-2.61,3.49-2.28c1.6,0.34,2.61,1.9,2.28,3.49c-0.52,2.46-0.12,5.12,1.1,7.31c1.21,2.18,3.25,3.9,5.58,4.72
						c1.54,0.54,2.34,2.22,1.8,3.76C814.59,1203.59,813.45,1204.35,812.23,1204.35z"></path></g><g><path d="M740.41,1233.5c-1.2,0-2.33-0.74-2.77-1.94c-0.56-1.53,0.23-3.22,1.76-3.78c11.28-4.12,23.04-6.78,34.97-7.91
						c1.62-0.15,3.06,1.04,3.21,2.66c0.16,1.62-1.03,3.06-2.65,3.21c-11.43,1.08-22.71,3.63-33.51,7.57
						C741.09,1233.44,740.75,1233.5,740.41,1233.5z"></path></g><g><path d="M761.46,1255.74c-1.11,0-2.18-0.63-2.68-1.71c-0.69-1.48-0.04-3.23,1.44-3.91c18.41-8.51,39.57-11.57,59.58-8.6
						c1.61,0.24,2.72,1.74,2.49,3.35c-0.24,1.61-1.72,2.72-3.35,2.48c-18.88-2.8-38.86,0.08-56.24,8.12
						C762.29,1255.65,761.87,1255.74,761.46,1255.74z"></path></g><g><path d="M778.55,1274.82c-1.05,0-2.06-0.56-2.59-1.54c-0.78-1.43-0.24-3.22,1.19-4c9.36-5.08,20.11-6.08,28.44-6.38
						c2.76-0.1,5.53-0.13,8.3-0.17c6.39-0.07,13-0.15,19.31-1.15c1.61-0.25,3.12,0.84,3.37,2.45c0.26,1.61-0.84,3.12-2.45,3.37
						c-6.73,1.06-13.56,1.14-20.16,1.22c-2.72,0.03-5.44,0.06-8.16,0.16c-7.68,0.28-17.55,1.18-25.84,5.67
						C779.5,1274.71,779.02,1274.82,778.55,1274.82z"></path></g><g><path d="M832.2,1235.27c-0.72,0-1.44-0.26-2-0.79c-2.23-2.06-4.75-4.4-6.38-7.52c-2.02-3.85-2.08-8.23-0.18-11.44
						c0.83-1.4,2.64-1.86,4.04-1.03c1.4,0.83,1.86,2.64,1.03,4.04c-0.85,1.44-0.72,3.67,0.34,5.69c1.16,2.22,3.2,4.11,5.16,5.93
						c1.2,1.11,1.27,2.97,0.16,4.17C833.78,1234.95,832.99,1235.27,832.2,1235.27z"></path></g><g><path d="M831.29,1262.37c-0.75,0-1.5-0.28-2.08-0.85c-3.91-3.88-5.94-9.7-5.28-15.2c0.19-1.61,1.63-2.78,3.28-2.58
						c1.62,0.19,2.77,1.66,2.58,3.28c-0.45,3.73,0.93,7.69,3.58,10.32c1.16,1.15,1.16,3.01,0.02,4.17
						C832.81,1262.08,832.05,1262.37,831.29,1262.37z"></path></g><g><path d="M805.88,1289.28c-0.73,0-1.46-0.27-2.03-0.81l-4.77-4.54c-1.18-1.12-1.23-2.99-0.1-4.17c1.13-1.18,2.99-1.22,4.17-0.1
						l4.77,4.54c1.18,1.12,1.23,2.99,0.1,4.17C807.44,1288.97,806.66,1289.28,805.88,1289.28z"></path></g><g><path d="M703.5,1211.83c-1.01,0-2-0.52-2.55-1.46c-0.82-1.41-0.35-3.21,1.06-4.03l8.28-4.84c1.41-0.82,3.22-0.35,4.03,1.06
						c0.82,1.41,0.35,3.21-1.06,4.03l-8.28,4.84C704.52,1211.7,704,1211.83,703.5,1211.83z"></path></g></g><g><path fill="#ffce33" d="M402.2,933.14c0,0-46.42,8.22-77.98,67.89s-58.99,273.57-16.55,324.48
					c51.19,61.39,227.13,7.51,227.13,7.51s55.66,13.2,65.41-3.44c0,0,51.64,21.23,50.49-4.02c-1.15-25.25-0.58-130.59-29.26-132.31
					c-28.69-1.72-61.35,7.19-76.27,16.37c-14.92,9.18-37.91-10.06-52.83-8.91c-14.92,1.15-82.62,12.62-82.62,12.62l21.06-170.52
					L402.2,933.14z"></path></g><g><path d="M398.64,1357.98c-37.89,0-73.87-7.36-93.22-30.58c-1.04-1.25-0.87-3.11,0.38-4.15c1.26-1.05,3.11-0.87,4.16,0.38
					c49.35,59.21,222.26,7.11,224,6.58c0.5-0.15,1.03-0.17,1.54-0.05c20.7,4.9,55.88,8.68,62.19-2.06c0.74-1.27,2.31-1.79,3.66-1.24
					c9.14,3.75,34.79,12.14,43.58,5.95c1.32-0.93,3.05-2.68,2.85-7.11c-0.13-2.79-0.23-6.54-0.36-11.02
					c-0.81-28.97-3.29-117.11-26.14-118.48c-27.77-1.67-59.69,6.8-74.55,15.94c-10.12,6.23-23.02,1.18-34.4-3.27
					c-7.39-2.89-14.37-5.63-19.75-5.21c-14.61,1.12-81.68,12.48-82.36,12.59c-0.92,0.16-1.85-0.13-2.53-0.78
					c-0.67-0.64-1-1.57-0.89-2.49l21.06-170.52c0.2-1.62,1.7-2.76,3.29-2.56c1.62,0.2,2.77,1.67,2.57,3.29l-20.57,166.6
					c14.75-2.48,66.01-11,78.98-12c6.74-0.51,14.32,2.45,22.36,5.6c10.59,4.14,21.54,8.42,29.16,3.74
					c15.64-9.62,49.08-18.54,77.99-16.8c24.88,1.49,29.98,63.62,31.68,124.2c0.12,4.44,0.23,8.16,0.35,10.92
					c0.31,6.76-2.74,10.36-5.35,12.2c-11.59,8.15-38.72-1.27-47.06-4.47c-12.8,14.41-58,4.83-66.33,2.92
					C526.04,1338.73,459.86,1357.98,398.64,1357.98z"></path></g><g><path d="M1223.58,1690.95c-1.41,0-2.66-1.01-2.9-2.45c-0.28-1.6,0.8-3.13,2.41-3.41c8.85-1.52,16.63-8.28,19.37-16.83
					c0.5-1.55,2.14-2.41,3.71-1.91c1.55,0.5,2.41,2.16,1.91,3.71c-3.39,10.59-13.03,18.96-23.99,20.84
					C1223.92,1690.94,1223.75,1690.95,1223.58,1690.95z"></path></g><g><path d="M1035.36,1736.15c-0.96,0-1.91-0.47-2.47-1.34c-0.89-1.36-0.51-3.19,0.86-4.08c8.68-5.67,15.61-13.62,20.05-22.99
					c0.7-1.47,2.45-2.1,3.93-1.4c1.47,0.7,2.1,2.46,1.4,3.93c-4.91,10.35-12.57,19.13-22.16,25.39
					C1036.48,1735.99,1035.92,1736.15,1035.36,1736.15z"></path></g><g><path d="M1107.25,1863.99c-1.45,0-2.71-1.06-2.92-2.54c-0.23-1.61,0.9-3.1,2.51-3.33c16.54-2.33,31.56-12.27,40.19-26.57
					c0.84-1.4,2.65-1.84,4.05-1c1.39,0.84,1.84,2.65,1,4.05c-9.53,15.81-26.13,26.79-44.41,29.36
					C1107.53,1863.98,1107.39,1863.99,1107.25,1863.99z"></path></g><g><path d="M1256.46,1810.21c-1.12,0-2.19-0.64-2.68-1.72c-0.68-1.48-0.03-3.23,1.45-3.91c11.26-5.18,21.46-12.2,30.31-20.87
					c1.17-1.14,3.03-1.12,4.17,0.04c1.14,1.16,1.12,3.03-0.05,4.17c-9.34,9.14-20.09,16.55-31.97,22.01
					C1257.29,1810.12,1256.87,1810.21,1256.46,1810.21z"></path></g></g><g><path d="M537.76,1235.65c-0.13,0-0.26-0.01-0.39-0.03c-1.62-0.21-2.75-1.7-2.54-3.31c0.81-6.14,0.79-12.35-0.06-18.48
				c-0.22-1.61,0.9-3.1,2.51-3.33c1.6-0.23,3.1,0.9,3.33,2.51c0.92,6.65,0.95,13.4,0.07,20.06
				C540.49,1234.57,539.22,1235.65,537.76,1235.65z"></path></g><g><path d="M534.7,1336.79c-0.4,0-0.81-0.08-1.19-0.25c-1.49-0.66-2.16-2.4-1.5-3.89c3.25-7.32,5.36-15.06,6.28-23.02
				c0.19-1.62,1.62-2.79,3.27-2.59c1.62,0.19,2.78,1.65,2.59,3.27c-0.98,8.55-3.25,16.88-6.74,24.74
				C536.91,1336.13,535.83,1336.79,534.7,1336.79z"></path></g><g><path d="M599.32,1332.97c-0.29,0-0.59-0.04-0.88-0.14c-1.55-0.49-2.42-2.14-1.93-3.7c2.22-7.08,2.72-14.69,1.43-22
				c-0.29-1.6,0.79-3.13,2.39-3.42c1.59-0.28,3.14,0.79,3.42,2.39c1.45,8.24,0.9,16.81-1.61,24.79
				C601.74,1332.16,600.58,1332.97,599.32,1332.97z"></path></g><g><path d="M385.99,1231.28c-0.96,0-1.91-0.47-2.48-1.34c-0.89-1.37-0.5-3.19,0.87-4.08l24.19-15.69c1.36-0.88,3.19-0.5,4.08,0.87
				c0.89,1.37,0.5,3.19-0.87,4.08l-24.19,15.69C387.09,1231.12,386.54,1231.28,385.99,1231.28z"></path></g><g><polygon fill="#ed3b3b" points="806.61 1268.5 1158.58 1241.07 1032.8 1289.66"></polygon></g><g><polygon fill="#ed3b3b" points="1029.11 1289.31 806.61 1268.5 806.61 1299.84 1023.41 1319.43"></polygon></g><g><polygon fill="#f95d5d" points="1022.65 1319.43 1072.13 1025.07 1405.19 1025.07 1339.07 1298.37"></polygon></g><g><path d="M1195.42,1193.32c-7.67,0-14.59-3-19.47-8.44c-4.92-5.48-7.16-12.76-6.31-20.49c1.71-15.6,15.79-28.29,31.4-28.29
				c7.67,0,14.59,3,19.47,8.44c4.92,5.48,7.16,12.76,6.31,20.49v0C1225.11,1180.63,1211.02,1193.32,1195.42,1193.32z
				 M1201.03,1142.01c-12.69,0-24.14,10.33-25.54,23.03c-0.66,6.04,1.06,11.69,4.84,15.91c3.75,4.18,9.1,6.48,15.08,6.48
				c12.69,0,24.14-10.33,25.54-23.03c0.66-6.04-1.06-11.69-4.84-15.91C1212.36,1144.31,1207.01,1142.01,1201.03,1142.01z
				 M1223.89,1164.72h0.03H1223.89z"></path></g><g><polygon fill="#ffb59c" points="567.55 932.81 542.81 965.35 465.32 926.62 463.64 882.33 460.49 798.55 521.39 763.86 538.74 753.99 558.18 742.92 564.82 739.14 564.72 742.94 563.01 800.36 562.28 825.28 566.19 904.87"></polygon></g><g><path d="M565.61,892.93c-37.27-14.58-69.62-48.5-79.93-65.22h76.74L565.61,892.93z"></path></g><g><g><path fill="#ffb59c" d="M492.61,716.05c4.37,23.95-23.7,59.03-23.7,59.03c0.58-16.64-19.08-27.94-19.08-27.94l3.41-40.24
					c25.13-46.69,76.15-57.86,138.39-53.69c0,0,8.66,17.81,18.05,43.15C556.51,709.78,492.61,716.05,492.61,716.05z"></path></g><g><path fill="#ffb59c" d="M598.08,710.53c0,0,24.91-27.82,44.28,0.98c19.36,28.8-19.96,55.75-19.96,55.75L598.08,710.53z"></path></g><g><g><path fill="#f39474" d="M597.68,718.53c0,0,19.95-22.28,35.45,0.78c15.5,23.06-15.98,44.64-15.98,44.64L597.68,718.53z"></path></g></g><g><path fill="#ffb59c" d="M602.05,862.09c-75.66,31.91-142.28-56.66-142.28-56.66s-48.59,4.44-47.48-34.13
					c0.84-28.27,37.53-24.17,37.53-24.17s19.66,11.3,19.08,27.94c0,0,28.08-35.07,23.7-59.03c0,0,63.89-6.27,117.07-19.69
					C629.96,750.89,653.69,840.29,602.05,862.09z"></path></g><g><g><path d="M567.99,872.06c-34.32,0-64.75-19.79-86.35-39.19c-1.21-1.09-1.31-2.95-0.22-4.16c1.09-1.21,2.96-1.31,4.16-0.22
						c27.48,24.69,69.79,50.1,115.32,30.89c1.5-0.63,3.23,0.07,3.86,1.57c0.63,1.5-0.07,3.23-1.57,3.86
						C591.16,869.89,579.36,872.06,567.99,872.06z"></path></g></g><g><path d="M654.56,646.5c-1.32,7.03-1.74,13.5-4.84,20.04c-6.36,13.48-15.92,25.8-28.9,33.47c-15.45,9.1-36.06,10.44-51.06,0.7
					c-2.25,1.76-4.82,3.2-7.39,4.52c-21.74,11.09-45.57,13.97-69.75,10.82c4.37,23.98-23.72,59.04-23.72,59.04
					c0.57-16.64-19.07-27.96-19.07-27.96s-37.28-3.01-37.23,30.54c-9.43-9.16-38.45-47.14-30.05-76.73
					c4.19-14.77,11.27-28.84,21.67-40.19c1.92-2.07,4.46-3.87,6.17-6.06c3.02-3.87,0.07-9,0.1-13.81
					c0.12-10.6,5.18-21.06,12.79-28.37c10.94-10.52,26.18-15.38,41.22-17.53c14.08-2.04,28.77-1.91,42.19,2.79
					c13.45,4.7,25.54,14.46,30.87,27.64c-2.53-14.91,6.85-30.05,19.86-37.74c13.01-7.72,28.84-9.15,43.92-7.93
					c11.68,0.91,23.6,3.46,33.24,10.12c10.07,6.98,16.89,18.12,19.66,30.05C656.26,628.62,656.17,637.73,654.56,646.5z"></path></g><g><g><path d="M576.84,806.63c-0.72,0-1.28-0.01-1.65-0.03c-1.63-0.06-2.9-1.42-2.84-3.05c0.05-1.63,1.52-2.86,3.05-2.85
						c5.54,0.19,14.22-0.77,16.3-3.48c1.6-3.44-2.97-27.2-8.17-47.17c-0.41-1.58,0.54-3.19,2.11-3.6c1.56-0.41,3.18,0.53,3.6,2.11
						c4.47,17.16,11.34,46.77,7.14,52.25C592.36,806.06,581.47,806.63,576.84,806.63z"></path></g></g><g><g><ellipse cx="611.76" cy="758.73" rx="7.06" ry="8.8" transform="rotate(-13.295 611.784 758.833)"></ellipse></g></g><g><g><path d="M598.14,751.2c-0.55,0-1.1-0.15-1.59-0.47c-1.37-0.88-1.77-2.71-0.88-4.08c7.4-11.5,18.81-10.76,23.81-8.76
						c1.51,0.6,2.25,2.32,1.64,3.83c-0.6,1.51-2.31,2.24-3.82,1.65c-0.45-0.17-10.12-3.72-16.68,6.47
						C600.06,750.73,599.11,751.2,598.14,751.2z"></path></g></g><g><g><ellipse cx="555.73" cy="765.45" rx="7.06" ry="8.8" transform="rotate(-13.295 555.75 765.552)"></ellipse></g></g><g><g><path d="M542.11,757.92c-0.55,0-1.1-0.15-1.59-0.47c-1.37-0.88-1.77-2.71-0.88-4.08c7.4-11.5,18.82-10.76,23.81-8.76
						c1.51,0.6,2.25,2.32,1.64,3.83c-0.6,1.51-2.31,2.24-3.82,1.65c-0.45-0.17-10.12-3.73-16.68,6.47
						C544.03,757.45,543.08,757.92,542.11,757.92z"></path></g></g><g><g><path d="M578.32,838.13c-1.17,0-2.28-0.7-2.74-1.86l0,0c-0.34-0.85-8.6-20.83-30.68-16.36c-1.58,0.32-3.15-0.71-3.48-2.31
						c-0.32-1.6,0.71-3.15,2.31-3.47c26.89-5.45,37.22,19.71,37.32,19.97c0.6,1.51-0.14,3.23-1.66,3.83
						C579.04,838.06,578.68,838.13,578.32,838.13z"></path></g></g></g><g><path fill="#f39474" d="M462.12,774.43c1.37,12.05-8.89,22.65-21.67,20.54c-5.88-0.97-10.87-4.81-14.23-9.79
				c-9.71-14.4,0.41-24.09,12.14-26.7C449.42,756.02,460.83,763.06,462.12,774.43z"></path></g><g><g><polygon fill="#fff" points="464.22 897.07 434.63 924.72 504.43 1018.44 536.7 962.28"></polygon></g><g><path d="M504.42,1021.39c-0.93,0-1.81-0.44-2.36-1.19l-69.79-93.72c-0.9-1.2-0.75-2.89,0.35-3.92l29.58-27.65
					c1.11-1.04,2.85-1.06,3.99-0.04l72.49,65.21c1.03,0.93,1.28,2.46,0.58,3.66l-32.28,56.15c-0.5,0.86-1.39,1.42-2.38,1.47
					C504.54,1021.38,504.48,1021.39,504.42,1021.39z M438.57,925.07l65.53,88l28.85-50.19l-68.71-61.81L438.57,925.07z"></path></g></g><g><polygon fill="#fff" points="565.61 901.42 588.99 924.3 572.14 1008.46 536.7 962.28"></polygon><path d="M572.14,1011.41c-0.9,0-1.77-0.42-2.34-1.15l-35.43-46.18c-0.67-0.88-0.8-2.06-0.33-3.06l28.9-60.86
				c0.41-0.86,1.21-1.47,2.15-1.64c0.93-0.17,1.9,0.13,2.58,0.79l23.38,22.88c0.71,0.7,1.03,1.71,0.83,2.69l-16.85,84.16
				c-0.23,1.13-1.1,2.03-2.22,2.29C572.58,1011.38,572.36,1011.41,572.14,1011.41z M540.14,961.92l30.38,39.59l15.26-76.22
				l-19.29-18.87L540.14,961.92z"></path></g><path fill="#fff" d="M2282.3,746.67c0,34.84-14.12,66.37-36.96,89.19c-22.82,22.82-54.35,36.94-89.19,36.94h-745.4
			c-69.66,0-126.15-56.47-126.15-126.13c0-34.84,14.12-66.37,36.96-89.21c22.82-22.82,54.37-36.94,89.19-36.94h745.4
			C2225.81,620.52,2282.3,676.99,2282.3,746.67z"></path><path fill="#eff3f8" d="M2229.8,746.67c0,19.67-7.66,38.17-21.56,52.06c-13.93,13.91-32.43,21.58-52.09,21.58h-745.4
			c-40.62,0-73.65-33.04-73.65-73.64c0-19.67,7.66-38.16,21.58-52.1c13.91-13.89,32.41-21.56,52.08-21.56h745.4
			C2196.76,673.02,2229.8,706.05,2229.8,746.67z"></path><path fill="#726ad3" d="M1922.09,746.66c0,19.7-7.64,38.19-21.55,52.07c-13.92,13.92-32.41,21.58-52.1,21.58h-437.69
			c-40.6,0-73.66-33.05-73.66-73.66c0-19.67,7.67-38.16,21.58-52.07c13.92-13.92,32.41-21.55,52.07-21.55h437.69
			C1889.07,673.03,1922.09,706.05,1922.09,746.66z"></path><path d="M2156.15,875.76h-745.4c-71.18,0-129.09-57.91-129.09-129.09s57.91-129.09,129.09-129.09h745.4
			c71.18,0,129.09,57.91,129.09,129.09S2227.33,875.76,2156.15,875.76z M1410.75,623.47c-67.93,0-123.2,55.27-123.2,123.2
			s55.27,123.2,123.2,123.2h745.4c67.93,0,123.2-55.27,123.2-123.2s-55.27-123.2-123.2-123.2H1410.75z"></path><path fill="#324e77" d="M1459.14 1017.78l4.11-18.44c3.56-16.13 7.05-35.07 10.46-56.8.31-2.08 1.37-3.94 3.17-5.58 1.8-1.64 3.9-2.47 6.29-2.47 2.08 0 3.76.63 5.05 1.88 1.29 1.25 1.94 2.88 1.94 4.88 0 1.53-1 7.79-3 18.8l-4.64 25.02c-1.1 5.68-3.27 15.53-6.52 29.55 9.24-.12 21.5-2.41 36.77-6.87.98-.23 1.86-.35 2.64-.35 2.39 0 4.13.72 5.23 2.17 1.1 1.45 1.64 2.96 1.64 4.52 0 3.56-1.69 6.28-5.08 8.14-3.39 1.86-10.14 3.7-20.27 5.52-10.12 1.82-18.63 2.73-25.52 2.73-8.34 0-12.51-3.21-12.51-9.63C1458.9 1019.9 1458.98 1018.88 1459.14 1017.78zM1528.1 1004.39c0-9.79 3.55-18.93 10.66-27.43 7.11-8.5 16.24-12.75 27.4-12.75 6.42 0 11.46 2.18 15.13 6.55 3.66 4.37 5.49 10.13 5.49 17.3 0 10.3-3.36 19.62-10.07 27.96-6.72 8.34-15.09 12.51-25.11 12.51-6.97 0-12.63-2.28-16.98-6.84C1530.27 1017.13 1528.1 1011.36 1528.1 1004.39zM1544.55 1002.04c0 3.33.81 5.99 2.44 7.99 1.63 2 3.97 3 7.02 3 5.09 0 9.15-2.14 12.16-6.43 3.01-4.29 4.52-9.8 4.52-16.54 0-6.89-2.64-10.34-7.93-10.34-5.17 0-9.5 2.5-12.98 7.49C1546.29 992.2 1544.55 997.14 1544.55 1002.04zM1630.07 1023.01c-7.71 3.52-13.49 5.29-17.33 5.29-16.13 0-24.2-7.42-24.2-22.26 0-12.34 4.31-22.47 12.92-30.4 8.61-7.93 18.15-11.9 28.61-11.9 3.84 0 8.12 1.13 12.84 3.38 4.72 2.25 7.08 4.81 7.08 7.67 0 1.76-.63 3.33-1.88 4.7-1.33 3.13-2.46 7.68-3.38 13.63-.92 5.95-1.38 10.42-1.38 13.39 0 1.72.12 2.94.35 3.64l1.76 5.76c.9 3.05 1.35 4.93 1.35 5.64 0 1.49-.88 3.09-2.64 4.82-1.76 1.72-3.94 2.59-6.52 2.59C1635.97 1028.94 1633.44 1026.97 1630.07 1023.01zM1632.13 978.9c-1.17-.74-2.29-1.12-3.35-1.12-5.84 0-11.24 2.46-16.21 7.37-4.97 4.91-7.46 11.19-7.46 18.83 0 6.93 3.04 10.4 9.11 10.4 4.94 0 9.54-1.61 13.8-4.82C1628.45 994.76 1629.82 984.53 1632.13 978.9zM1710.2 965.97c2.97-14.45 5.1-23.81 6.37-28.08 1.27-4.27 4.16-6.4 8.66-6.4 4.43 0 6.64 2.11 6.64 6.34 0 2.08-1.84 10.98-5.52 26.73-3.1 13-5.28 24.17-6.55 33.51-1.27 9.34-1.91 15.58-1.91 18.71 0 1.88-.16 3.37-.47 4.46-.31 1.1-1.3 2.31-2.97 3.64-1.67 1.33-3.52 2-5.55 2-2.94 0-4.92-1.33-5.93-3.99-5.72 3.21-11.69 4.82-17.92 4.82-8.22 0-14.67-2.39-19.33-7.17s-6.99-10.57-6.99-17.39c0-10.22 3.51-19.59 10.54-28.11s16.26-12.78 27.7-12.78C1702.77 962.27 1707.18 963.51 1710.2 965.97zM1706.14 984.53c-1.8-4.9-5.54-7.34-11.22-7.34-7.29 0-12.58 2.49-15.89 7.46-3.31 4.97-4.96 9.99-4.96 15.04 0 3.68 1.3 6.77 3.9 9.25 2.61 2.49 5.77 3.73 9.49 3.73 5.13 0 10.22-2.21 15.27-6.64C1702.74 1004.66 1703.87 997.5 1706.14 984.53zM1739.57 1026.89c-2.15 0-3.88-.62-5.17-1.85-1.29-1.23-1.94-2.81-1.94-4.73l1.65-11.98c1.06-8.07 2.46-16 4.23-23.79 1.37-5.76 2.25-10.16 2.64-13.22.31-2.15 1.38-4 3.2-5.55 1.82-1.55 3.89-2.32 6.2-2.32 2.04 0 3.69.61 4.96 1.82 1.27 1.21 1.91 2.8 1.91 4.76 0 1.57-.86 6.09-2.59 13.57-1.72 7.48-3.02 14.71-3.9 21.68-.88 6.97-1.55 11.63-2 13.98s-1.55 4.21-3.29 5.58C1743.73 1026.2 1741.76 1026.89 1739.57 1026.89zM1745.68 947.06c0-2.7 1.12-5.03 3.35-6.99 2.23-1.96 4.68-2.94 7.34-2.94 2.23 0 4.13.71 5.7 2.14 1.57 1.43 2.35 3.16 2.35 5.2 0 2.62-1.11 4.94-3.32 6.96-2.21 2.02-4.71 3.02-7.49 3.02-2.27 0-4.16-.72-5.67-2.17C1746.43 950.84 1745.68 949.09 1745.68 947.06zM1787.15 970.79c6.62-5.76 13.08-8.63 19.38-8.63 9.87 0 14.8 5.68 14.8 17.03 0 3.09-.33 6.72-1 10.87l-.71 4.23c-.98 5.87-1.47 11.08-1.47 15.63 0 5.33-.14 9.08-.41 11.25-.27 2.17-1.28 4.07-3.02 5.7-1.74 1.62-3.83 2.44-6.26 2.44-4.66 0-6.99-2.25-6.99-6.76 0-9.91.29-17.18.88-21.82.59-4.64 1.56-9.8 2.94-15.48.55-2.19.82-3.74.82-4.64 0-1.96-.67-2.94-2-2.94-3.72 0-7.68 2.2-11.87 6.61-4.19 4.41-7.35 8.91-9.49 13.51-2.13 4.6-3.44 10.45-3.9 17.53-.16 3.41-.47 5.77-.94 7.08-.47 1.31-1.5 2.57-3.08 3.76-1.58 1.19-3.49 1.79-5.73 1.79-2.04 0-3.71-.59-5.02-1.76-1.31-1.17-1.97-2.68-1.97-4.52l.47-6.34c.31-4.31 1.57-11.16 3.76-20.56 2.11-8.69 3.33-14.7 3.64-18.03.31-3.68.64-6.5.97-8.46.33-1.96 1.39-3.67 3.17-5.14 1.78-1.47 3.86-2.2 6.25-2.2 5.09 0 7.34 3.05 6.76 9.16V970.79zM1862.28 1021.95c-4.5 4.07-9.79 6.11-15.86 6.11-7.13 0-12.68-2.04-16.65-6.11-3.98-4.07-5.96-9.22-5.96-15.45 0-10.53 3.86-20.1 11.57-28.7 7.71-8.6 18.29-12.89 31.72-12.89 7.4 0 12.45 1.8 15.15 5.4 4.15.51 6.23 2.76 6.23 6.76 0 2.23-1.08 6.56-3.23 12.98-2.94 8.77-5.46 18.48-7.58 29.14-2.58 14.41-7.01 24.5-13.27 30.28-6.27 5.78-15.08 8.66-26.43 8.66-14.21 0-21.32-2.64-21.32-7.93 0-2.11.75-4.02 2.26-5.73 1.51-1.7 3.57-2.55 6.2-2.55 1.84 0 4.33.31 7.46.94 3.41.74 6.3 1.12 8.69 1.12 5.68 0 10.16-1.74 13.45-5.23C1857.99 1035.27 1860.52 1029.67 1862.28 1021.95zM1871.68 980.66c-2.59-1.61-5.03-2.41-7.34-2.41-7.6 0-13.53 2.72-17.8 8.16-4.27 5.44-6.4 11.51-6.4 18.21 0 6.42 2.9 9.63 8.69 9.63 2.94 0 6.12-1.55 9.55-4.64 3.43-3.09 5.78-6.15 7.05-9.16C1866.69 997.44 1868.78 990.84 1871.68 980.66zM1900.11 1024.18c0-2.31 1.13-4.41 3.41-6.29 2.27-1.88 4.8-2.82 7.58-2.82 2.55 0 4.58.67 6.11 2 1.53 1.33 2.29 2.98 2.29 4.93 0 2.43-1.13 4.56-3.38 6.4-2.25 1.84-4.81 2.76-7.67 2.76-2.31 0-4.28-.7-5.9-2.11C1900.92 1027.65 1900.11 1026.03 1900.11 1024.18zM1952.27 1024.18c0-2.31 1.13-4.41 3.41-6.29 2.27-1.88 4.8-2.82 7.58-2.82 2.55 0 4.58.67 6.11 2 1.53 1.33 2.29 2.98 2.29 4.93 0 2.43-1.13 4.56-3.38 6.4-2.25 1.84-4.81 2.76-7.67 2.76-2.31 0-4.28-.7-5.9-2.11C1953.08 1027.65 1952.27 1026.03 1952.27 1024.18zM1993.27 1019.84c0-2.23.95-4.16 2.85-5.79 1.9-1.62 3.97-2.44 6.2-2.44 2.35 0 4.25 1.08 5.7 3.23 1.45 2.15 2.17 4.17 2.17 6.05 0 2.08-.98 3.94-2.94 5.58-1.96 1.64-4.01 2.47-6.17 2.47-2.11 0-3.94-1.03-5.49-3.08C1994.04 1023.8 1993.27 1021.8 1993.27 1019.84zM2023.23 938.07l-9.87 62.32c-.31 2-1.28 3.7-2.91 5.11-1.63 1.41-3.58 2.11-5.85 2.11-2.04 0-3.63-.58-4.79-1.73-1.15-1.15-1.73-2.53-1.73-4.14 0-.39.19-1.8.59-4.23l.53-3.99c.9-6.74 2.51-16.88 4.82-30.43l3.88-24.14c.31-2.54 1.35-4.55 3.11-6.02 1.76-1.47 3.72-2.2 5.87-2.2 2.12 0 3.78.7 4.99 2.08C2023.09 934.2 2023.54 935.96 2023.23 938.07z"></path><g><g><g><path fill="#dbefa2" d="M749.24,712.46c0,0,38.25-79.33,63.47-131.97c-46.65-54.13-60.72-132.41-29.65-201.98
						c42.87-96.01,155.46-139.08,251.45-96.21c96.01,42.87,139.08,155.46,96.21,251.47c-42.87,96-155.45,139.07-251.46,96.2
						c-6.47-2.89-12.7-6.1-18.69-9.59L749.24,712.46z"></path></g></g><g><g><path d="M751.9,713.74l-5.31-2.56c0,0,37.42-77.61,62.64-130.23c-47.64-56.42-59-136.13-28.85-203.64
						c43.47-97.34,158.02-141.17,255.35-97.7c1.49,0.66,2.15,2.41,1.49,3.89c-0.66,1.49-2.4,2.16-3.9,1.49
						c-94.36-42.14-205.42,0.35-247.56,94.72c-29.48,66.02-18.02,144.08,29.19,198.86c0.76,0.89,0.93,2.14,0.43,3.2
						C790.15,634.41,751.9,713.74,751.9,713.74z"></path></g></g></g><g><g><path fill="#726ad3" d="M956.41,407.06L956.41,407.06c-7.38,0-13.37-5.98-13.37-13.37v-35.86c0-7.38,5.98-13.37,13.37-13.37l0,0
					c7.38,0,13.37,5.98,13.37,13.37v35.86C969.77,401.08,963.79,407.06,956.41,407.06z"></path></g><g><path fill="#89d595" d="M916.94,423.41L916.94,423.41c-5.22,5.22-13.68,5.22-18.9,0l-25.35-25.35c-5.22-5.22-5.22-13.68,0-18.9v0
					c5.22-5.22,13.68-5.22,18.9,0l25.35,25.35C922.16,409.73,922.16,418.19,916.94,423.41z"></path></g><g><path fill="#89d595" d="M900.59,462.88L900.59,462.88c0,7.38-5.98,13.37-13.37,13.37h-35.86c-7.38,0-13.37-5.98-13.37-13.37l0,0
					c0-7.38,5.98-13.37,13.37-13.37h35.86C894.61,449.51,900.59,455.5,900.59,462.88z"></path></g><g><path fill="#89d595" d="M916.94,502.35L916.94,502.35c5.22,5.22,5.22,13.68,0,18.9l-25.35,25.35c-5.22,5.22-13.68,5.22-18.9,0l0,0
					c-5.22-5.22-5.22-13.68,0-18.9l25.35-25.35C903.26,497.13,911.72,497.13,916.94,502.35z"></path></g><g><path fill="#89d595" d="M956.41,518.69L956.41,518.69c7.38,0,13.37,5.98,13.37,13.37v35.86c0,7.38-5.98,13.37-13.37,13.37l0,0
					c-7.38,0-13.37-5.98-13.37-13.37v-35.86C943.04,524.68,949.03,518.69,956.41,518.69z"></path></g><g><path fill="#89d595" d="M995.88,502.35L995.88,502.35c5.22-5.22,13.68-5.22,18.9,0l25.35,25.35c5.22,5.22,5.22,13.68,0,18.9l0,0
					c-5.22,5.22-13.68,5.22-18.9,0l-25.35-25.35C990.66,516.03,990.66,507.57,995.88,502.35z"></path></g><g><path fill="#89d595" d="M1012.23,462.88L1012.23,462.88c0-7.38,5.98-13.37,13.37-13.37h35.86c7.38,0,13.37,5.98,13.37,13.37l0,0
					c0,7.38-5.98,13.37-13.37,13.37h-35.86C1018.21,476.24,1012.23,470.26,1012.23,462.88z"></path></g><g><g><path fill="#89d595" d="M995.88,423.41L995.88,423.41c-5.22-5.22-5.22-13.68,0-18.9l25.35-25.35c5.22-5.22,13.68-5.22,18.9,0v0
						c5.22,5.22,5.22,13.68,0,18.9l-25.35,25.35C1009.56,428.63,1001.1,428.63,995.88,423.41z"></path></g></g><g><path fill="#358f6e" d="M956.41,407.06L956.41,407.06c-7.38,0-13.37-5.98-13.37-13.37v-54.16c0-7.38,5.98-13.37,13.37-13.37l0,0
					c7.38,0,13.37,5.98,13.37,13.37v54.16C969.77,401.08,963.79,407.06,956.41,407.06z"></path></g></g><g><g><path fill="#ff9c9c" d="M1947.02,1626.92l-264.36-126.28c-49.76-23.77-53.11-93.31-5.88-121.76l227.91-137.27
					c42.53-25.61,97.44,0.61,104.29,49.82l36.45,263.55C2052.97,1609.59,1996.78,1650.69,1947.02,1626.92z"></path></g><g><g><path fill="#fff" d="M1948.94,1359.54l-56.95,97.86c-6.24,10.73-19.68,14.87-30.88,9.52l0,0c-11.2-5.35-16.42-18.4-12-30
						l40.33-105.8c6.89-18.06,27.72-26.4,45.17-18.07v0C1952.05,1321.38,1958.66,1342.83,1948.94,1359.54z"></path></g><g><circle cx="1844.72" cy="1501.23" r="25.35" fill="#fff"></circle></g></g></g></g></g></svg>