<svg width="13" height="14" viewBox="0 0 13 14" fill="none" xmlns="http://www.w3.org/2000/svg">
<path d="M1.48873 13.9011C1.25846 13.9007 1.03226 13.8403 0.832391 13.726C0.382328 13.4709 0.102539 12.9759 0.102539 12.4384V1.56189C0.102539 1.02294 0.382328 0.529372 0.832391 0.274337C1.03702 0.156734 1.26948 0.0962564 1.50548 0.0992254C1.74148 0.102194 1.97235 0.168501 2.17395 0.291214L11.4696 5.85549C11.6634 5.97696 11.8231 6.14565 11.9338 6.34573C12.0445 6.54581 12.1025 6.77073 12.1025 6.9994C12.1025 7.22806 12.0445 7.45298 11.9338 7.65306C11.8231 7.85314 11.6634 8.02183 11.4696 8.14331L2.17245 13.7091C1.96613 13.8338 1.72982 13.9002 1.48873 13.9011Z" fill="#007AFF"/>
</svg>
