<svg width="16" height="16" viewBox="0 0 16 16" fill="none" xmlns="http://www.w3.org/2000/svg">
<path fill-rule="evenodd" clip-rule="evenodd" d="M7.28895 0C3.26339 0 0 3.26339 0 7.28895C0 11.3145 3.26339 14.5779 7.28895 14.5779C9.02526 14.5779 10.6198 13.9708 11.8718 12.9572L14.6898 15.7753C14.9895 16.0749 15.4753 16.0749 15.7749 15.7753C16.0745 15.4756 16.0745 14.9898 15.7749 14.6902L12.9569 11.8722C13.9706 10.6201 14.5779 9.02545 14.5779 7.28895C14.5779 3.26339 11.3145 0 7.28895 0ZM1.53452 7.28895C1.53452 4.11088 4.11088 1.53452 7.28895 1.53452C10.467 1.53452 13.0434 4.11088 13.0434 7.28895C13.0434 10.467 10.467 13.0434 7.28895 13.0434C4.11088 13.0434 1.53452 10.467 1.53452 7.28895Z" fill="#3C3137"/>
</svg>
