<svg width="7" height="8" viewBox="0 0 7 8" fill="none" xmlns="http://www.w3.org/2000/svg">
<path d="M0.460253 3.57897H5.76242C6.15823 3.57897 6.36853 3.1493 6.10542 2.8776L3.45457 0.141617C3.41157 0.0970937 3.35877 0.061448 3.29964 0.0370356C3.24051 0.0126233 3.1764 0 3.11156 0C3.04672 0 2.98262 0.0126233 2.92349 0.0370356C2.86436 0.061448 2.81155 0.0970937 2.76856 0.141617L0.116786 2.8776C-0.146325 3.1493 0.0639799 3.57897 0.460253 3.57897ZM2.7681 7.85838C2.8111 7.90291 2.8639 7.93855 2.92303 7.96297C2.98216 7.98738 3.04626 8 3.1111 8C3.17595 8 3.24005 7.98738 3.29918 7.96297C3.35831 7.93855 3.41111 7.90291 3.45411 7.85838L6.10496 5.1224C6.36853 4.85112 6.15823 4.42145 5.76196 4.42145H0.460253C0.0644391 4.42145 -0.145866 4.85112 0.117245 5.12283L2.7681 7.85838Z" fill="#999999"/>
</svg>
