<svg width="19" height="18" viewBox="0 0 19 18" fill="none" xmlns="http://www.w3.org/2000/svg">
<path d="M7.41667 9.83333C7.41667 10.2936 7.04357 10.6667 6.58333 10.6667C6.1231 10.6667 5.75 10.2936 5.75 9.83333C5.75 9.3731 6.1231 9 6.58333 9C7.04357 9 7.41667 9.3731 7.41667 9.83333Z" fill="#333333"/>
<path fill-rule="evenodd" clip-rule="evenodd" d="M7.68894 12.2812C7.43214 11.9036 6.91848 11.8028 6.53774 12.0566C6.1548 12.3119 6.05132 12.8293 6.30661 13.2122L6.99999 12.75C6.30661 13.2122 6.3064 13.2119 6.30661 13.2122L6.30749 13.2136L6.30844 13.215L6.31061 13.2182L6.31594 13.226L6.33062 13.247C6.3422 13.2632 6.35738 13.2841 6.37619 13.3087C6.41376 13.3581 6.46611 13.4233 6.5334 13.4989C6.66739 13.6497 6.86408 13.846 7.12499 14.0417C7.6493 14.4349 8.4454 14.8333 9.49999 14.8333C10.5546 14.8333 11.3507 14.4349 11.875 14.0417C12.1359 13.846 12.3326 13.6497 12.4666 13.4989C12.5339 13.4233 12.5862 13.3581 12.6238 13.3087C12.6426 13.2841 12.6578 13.2632 12.6694 13.247L12.684 13.226L12.6894 13.2182L12.6915 13.215L12.6925 13.2136C12.6927 13.2132 12.6934 13.2122 12 12.75L12.6934 13.2122C12.9487 12.8293 12.8452 12.3119 12.4622 12.0566C12.0815 11.8028 11.5678 11.9036 11.311 12.2812C11.3095 12.2833 11.3052 12.2893 11.2981 12.2987C11.2835 12.3177 11.2578 12.3502 11.2209 12.3917C11.1466 12.4753 11.0307 12.5915 10.875 12.7083C10.566 12.9401 10.1121 13.1667 9.49999 13.1667C8.8879 13.1667 8.43401 12.9401 8.12499 12.7083C7.96922 12.5915 7.85342 12.4753 7.77908 12.3917C7.74219 12.3502 7.71642 12.3177 7.70191 12.2987C7.69478 12.2893 7.69045 12.2833 7.68894 12.2812ZM11.3075 12.2865C11.3087 12.2847 11.3098 12.2829 11.311 12.2812C11.311 12.2812 11.3111 12.2812 11.311 12.2812C11.3117 12.2802 11.3118 12.2801 11.311 12.2812L11.3094 12.2836L11.3081 12.2855" fill="#333333"/>
<path d="M13.25 9.83333C13.25 10.2936 12.8769 10.6667 12.4167 10.6667C11.9564 10.6667 11.5833 10.2936 11.5833 9.83333C11.5833 9.3731 11.9564 9 12.4167 9C12.8769 9 13.25 9.3731 13.25 9.83333Z" fill="#333333"/>
<path fill-rule="evenodd" clip-rule="evenodd" d="M17.4167 5.25H14.8612C14.4889 2.47296 12.2846 0.25 9.5 0.25C6.7154 0.25 4.51105 2.47296 4.13881 5.25H1.58334C1.33911 5.25 1.10717 5.35714 0.948836 5.5431C0.790505 5.72906 0.721723 5.97512 0.760671 6.21623L2.51067 17.0496C2.57588 17.4533 2.9244 17.75 3.33334 17.75H15.6667C16.0756 17.75 16.4241 17.4533 16.4893 17.0496L18.2393 6.21623C18.2783 5.97512 18.2095 5.72906 18.0512 5.5431C17.8928 5.35714 17.6609 5.25 17.4167 5.25ZM2.56209 6.91667H16.4379L14.9572 16.0833H4.04286L2.56209 6.91667ZM9.5 1.91667C7.73827 1.91667 6.17631 3.30408 5.82406 5.25H13.1759C12.8237 3.30408 11.2617 1.91667 9.5 1.91667Z" fill="#333333"/>
</svg>
