<svg width="100" height="100" viewBox="0 0 100 100" fill="none" xmlns="http://www.w3.org/2000/svg">
<rect width="100" height="100" rx="50" fill="#059669"/>
<path fill-rule="evenodd" clip-rule="evenodd" d="M10 50C10 39.3913 14.2143 29.2172 21.7157 21.7157C29.2172 14.2143 39.3913 10 50 10C60.6087 10 70.7828 14.2143 78.2843 21.7157C85.7857 29.2172 90 39.3913 90 50C90 60.6087 85.7857 70.7828 78.2843 78.2843C70.7828 85.7857 60.6087 90 50 90C39.3913 90 29.2172 85.7857 21.7157 78.2843C14.2143 70.7828 10 60.6087 10 50ZM47.7173 67.12L70.7467 38.3307L66.5867 35.0027L46.9493 59.5413L33.04 47.952L29.6267 52.048L47.7173 67.1253V67.12Z" fill="#ECFDF5"/>
</svg>
