<svg width="21" height="20" viewBox="0 0 21 20" fill="none" xmlns="http://www.w3.org/2000/svg">
<path d="M7.16602 4.16683C7.16602 3.70659 7.53911 3.3335 7.99935 3.3335H18.8327C19.2929 3.3335 19.666 3.70659 19.666 4.16683C19.666 4.62707 19.2929 5.00016 18.8327 5.00016H7.99935C7.53911 5.00016 7.16602 4.62707 7.16602 4.16683Z" fill="#333333"/>
<path d="M6.33268 9.16683C5.87244 9.16683 5.49935 9.53993 5.49935 10.0002C5.49935 10.4604 5.87244 10.8335 6.33268 10.8335H7.99935C8.45959 10.8335 8.83268 10.4604 8.83268 10.0002C8.83268 9.53993 8.45959 9.16683 7.99935 9.16683H6.33268Z" fill="#333333"/>
<path d="M11.3327 9.16683C10.8724 9.16683 10.4993 9.53993 10.4993 10.0002C10.4993 10.4604 10.8724 10.8335 11.3327 10.8335H18.8327C19.2929 10.8335 19.666 10.4604 19.666 10.0002C19.666 9.53993 19.2929 9.16683 18.8327 9.16683H11.3327Z" fill="#333333"/>
<path d="M7.16602 15.8335C7.16602 15.3733 7.53911 15.0002 7.99935 15.0002H18.8327C19.2929 15.0002 19.666 15.3733 19.666 15.8335C19.666 16.2937 19.2929 16.6668 18.8327 16.6668H7.99935C7.53911 16.6668 7.16602 16.2937 7.16602 15.8335Z" fill="#333333"/>
<path d="M2.99935 15.0002C2.53911 15.0002 2.16602 15.3733 2.16602 15.8335C2.16602 16.2937 2.53911 16.6668 2.99935 16.6668H4.66602C5.12625 16.6668 5.49935 16.2937 5.49935 15.8335C5.49935 15.3733 5.12625 15.0002 4.66602 15.0002H2.99935Z" fill="#333333"/>
<path d="M2.99935 3.3335C2.53911 3.3335 2.16602 3.70659 2.16602 4.16683C2.16602 4.62707 2.53911 5.00016 2.99935 5.00016H4.66602C5.12625 5.00016 5.49935 4.62707 5.49935 4.16683C5.49935 3.70659 5.12625 3.3335 4.66602 3.3335H2.99935Z" fill="#333333"/>
</svg>
