<svg width="23" height="20" viewBox="0 0 23 20" fill="none" xmlns="http://www.w3.org/2000/svg">
<path fill-rule="evenodd" clip-rule="evenodd" d="M13.8443 8.75097C14.4052 8.16693 14.75 7.37373 14.75 6.5C14.75 4.70507 13.2949 3.25 11.5 3.25C9.70507 3.25 8.25 4.70507 8.25 6.5C8.25 7.37373 8.59478 8.16693 9.15572 8.75097C7.45817 9.51776 6.25 11.0957 6.25 13C6.25 13.4142 6.58579 13.75 7 13.75C7.41421 13.75 7.75 13.4142 7.75 13C7.75 11.2857 9.34343 9.75 11.5 9.75C13.6566 9.75 15.25 11.2857 15.25 13C15.25 13.4142 15.5858 13.75 16 13.75C16.4142 13.75 16.75 13.4142 16.75 13C16.75 11.0957 15.5418 9.51776 13.8443 8.75097ZM11.5 4.75C10.5335 4.75 9.75 5.5335 9.75 6.5C9.75 7.4665 10.5335 8.25 11.5 8.25C12.4665 8.25 13.25 7.4665 13.25 6.5C13.25 5.5335 12.4665 4.75 11.5 4.75Z" fill="#333333"/>
<path fill-rule="evenodd" clip-rule="evenodd" d="M0.75 1C0.75 0.585786 1.08579 0.25 1.5 0.25H21.5C21.9142 0.25 22.25 0.585786 22.25 1V16C22.25 16.4142 21.9142 16.75 21.5 16.75H14.3107L12.0303 19.0303C11.7374 19.3232 11.2626 19.3232 10.9697 19.0303L8.68934 16.75H1.5C1.08579 16.75 0.75 16.4142 0.75 16V1ZM2.25 1.75V15.25H9C9.19891 15.25 9.38968 15.329 9.53033 15.4697L11.5 17.4393L13.4697 15.4697C13.6103 15.329 13.8011 15.25 14 15.25H20.75V1.75H2.25Z" fill="#333333"/>
</svg>
